<svg id="Layer_1" data-name="Layer 1" xmlns="http://www.w3.org/2000/svg" width="310" height="106" viewBox="0 0 310.56 106.87"><defs><style>.cls-1{fill:gray;}</style></defs><path class="cls-1" d="M162.2,60.06v-20a6.4,6.4,0,0,1,.05-.88,2,2,0,0,1,1.69-1.77,5.14,5.14,0,0,1,.88-.06h50.69a4.24,4.24,0,0,1,.62,0,1.31,1.31,0,0,1,1.31,1.44c0,.72,0,1.45,0,2.17a1.3,1.3,0,0,1-1.28,1.41,6.77,6.77,0,0,1-.78,0H168.8v.66q0,12.59,0,25.17a5,5,0,0,1-.09,1,1.8,1.8,0,0,1-1.63,1.52,44.68,44.68,0,0,1-4.91,0,3.4,3.4,0,0,1-2.66-1.94l-2.13-3.73-9.63-17a1.14,1.14,0,0,0-.39-.41V68.32a3.93,3.93,0,0,1-.11,1.08,1.75,1.75,0,0,1-1.6,1.41,20.11,20.11,0,0,1-3.2,0A2,2,0,0,1,140.72,69a4.34,4.34,0,0,1,0-.51V39.55a2,2,0,0,1,2.07-2.24c1.47-.05,2.94,0,4.41,0a3.64,3.64,0,0,1,3.23,2.08q1.47,2.63,3,5.23,4.19,7.47,8.39,14.93l.31.53Z"/><path class="cls-1" d="M250.79,60.55a5.72,5.72,0,0,0,2.11,4.16c2.17,1.82,6.57,1.76,8.43-1.1a1.84,1.84,0,0,1,1.67-.86h3.42c1.05,0,1.51.59,1.27,1.62a7.55,7.55,0,0,1-2.1,3.57,11.78,11.78,0,0,1-6.36,3.14,12.51,12.51,0,0,1-9.13-1.48,12.06,12.06,0,0,1-5.64-8.55,13.1,13.1,0,0,1,2.48-10.76A11.19,11.19,0,0,1,255.06,46a13,13,0,0,1,7.49,1.32,11.08,11.08,0,0,1,5.77,8.15,16.31,16.31,0,0,1,.23,3.49A1.56,1.56,0,0,1,267,60.51a5.1,5.1,0,0,1-.78,0c-4.92,0-9.85,0-14.77,0Zm11.27-4.84c-.22-3-2.81-5-6.2-4.78-2.67.16-5.07,2.45-5,4.78Z"/><path class="cls-1" d="M177.66,60.55a5.47,5.47,0,0,0,4.16,5.18c2.56.56,4.81.07,6.41-2.22a1.75,1.75,0,0,1,1.51-.75c1.21,0,2.42,0,3.63,0a1.07,1.07,0,0,1,1.18,1.37,6.55,6.55,0,0,1-1.75,3.4,11.44,11.44,0,0,1-6.74,3.55A12.44,12.44,0,0,1,177,69.65a12.22,12.22,0,0,1-5.81-9.17,13.33,13.33,0,0,1,1.39-8.38c2.4-4.51,6.83-6.5,11.64-6.19a11.3,11.3,0,0,1,11,10.17,15.22,15.22,0,0,1,.11,2.78,1.61,1.61,0,0,1-1.6,1.66,5.7,5.7,0,0,1-.72,0c-4.92,0-9.84,0-14.77,0Zm11.24-4.84c-.13-2.21-2.06-5-6.13-4.79-2.72.17-5.15,2.42-5,4.79Z"/><path class="cls-1" d="M83.54,34.12l1.38-2.64H82c.31-.54.58-1,.85-1.45a30.68,30.68,0,0,0,2.33-4.48A7,7,0,0,1,92,21.45,8.82,8.82,0,0,1,98,24.25c.81.81,1.58,1.65,2.3,2.53a25.16,25.16,0,0,0,4.35,4.34,45.31,45.31,0,0,1,10.09,10.77,166.13,166.13,0,0,1,12.68,21.64,51.53,51.53,0,0,1,3.33,8.4,11.32,11.32,0,0,1,.32,1.62c.11.87-.27,1.23-1.08.93a15,15,0,0,1-2.47-1.16c-1.06-.63-2.07-1.36-3.16-2.08.07.2.11.36.17.51,1,2.68,1.93,5.35,2.88,8a4.94,4.94,0,0,1,.28,1.31,1.3,1.3,0,0,1-1.35,1.44q-1.25,0-2.49,0a2.44,2.44,0,0,0-1.86.76c-.51.52-1,1-1.56,1.52-1.15,1.08-2.47.73-2.8-.81-.47-2.19-.85-4.4-1.23-6.61-.53-3.09-1-6.19-1.52-9.29a1.17,1.17,0,0,1,0-.41,3.71,3.71,0,0,1,.22-.55c.14.15.36.27.41.45.49,1.87,1,3.73,1.43,5.61.71,2.93,1.38,5.88,2.09,8.81.06.26.24.64.42.69a1.06,1.06,0,0,0,.8-.31c1.5-1.55,1.48-1,1-3.31L120,73.36a1.14,1.14,0,0,1,0-.36c0-.12.11-.29.19-.3a.37.37,0,0,1,.32.17,3.32,3.32,0,0,1,.22.58l2.18,6.3c.26.75.47.9,1.24.91q.5,0,1,0c.45,0,.67-.25.59-.7a4.26,4.26,0,0,0-.19-.7c-1.06-3-2.12-6.09-3.2-9.12a1.66,1.66,0,0,0-.53-.72A98.08,98.08,0,0,1,107,56.15a47,47,0,0,1-8-11.83,27.2,27.2,0,0,1-2-6.08,2,2,0,0,1,.13-.74,2.28,2.28,0,0,1,.47.52,65.55,65.55,0,0,0,10,16.27,72.92,72.92,0,0,0,12,11.1c2.93,2.19,6,4.27,8.93,6.4l.36.22c-.45-1.15-.83-2.17-1.25-3.19a137.5,137.5,0,0,0-12.06-22.26,68.54,68.54,0,0,0-7.1-9.42,32.89,32.89,0,0,0-5.06-4.59A22.79,22.79,0,0,1,99,28.28a37.55,37.55,0,0,0-2.83-3.08,6.2,6.2,0,0,0-4.95-1.85,4.89,4.89,0,0,0-4.44,3.21,20.83,20.83,0,0,1-1.6,3.29c0,.07-.06.15-.12.28h2.08L86,32.26A9.16,9.16,0,0,1,87.5,32a15.86,15.86,0,0,1,2.93.17,2.83,2.83,0,0,1,2.24,2.21,21.75,21.75,0,0,1,.72,3.8c.39,6.07,3.06,11,7.26,15.27a3.5,3.5,0,0,1,.49.53,1.25,1.25,0,0,1,.11.48c-.16,0-.35,0-.46-.07-.58-.43-1.16-.88-1.7-1.36a21.55,21.55,0,0,1-5.78-7.22,22.22,22.22,0,0,1-1.54-5.94c-.23-1.41-.42-2.83-.71-4.23a2.39,2.39,0,0,0-2.62-2.15,15.74,15.74,0,0,0-4.26.47Z"/><path class="cls-1" d="M214.88,53.63c-.57,0-1.14,0-1.71,0A1.24,1.24,0,0,1,212,53a4,4,0,0,0-3.25-2.18,7.19,7.19,0,0,0-3.23.16,3.66,3.66,0,0,0-1.14.6,1.71,1.71,0,0,0,.35,2.93,16.7,16.7,0,0,0,2.51.81c2.08.58,4.18,1,6.24,1.7A6.71,6.71,0,0,1,218,61a6.91,6.91,0,0,1-2.5,8.22,12.2,12.2,0,0,1-5.64,2,15,15,0,0,1-8.64-1.28,9.25,9.25,0,0,1-3.34-2.64,5.13,5.13,0,0,1-1.13-3.16,1.21,1.21,0,0,1,1.35-1.35c1,0,2.1,0,3.16,0a1.58,1.58,0,0,1,1.53.88A4.68,4.68,0,0,0,207,66.13a12.9,12.9,0,0,0,3-.29,2.81,2.81,0,0,0,1.29-.72,1.75,1.75,0,0,0-.49-3,11.9,11.9,0,0,0-1.86-.61c-2.1-.56-4.22-1.07-6.3-1.68a8.1,8.1,0,0,1-3.81-2.31,6.53,6.53,0,0,1,1.07-9.45,10.75,10.75,0,0,1,5.41-2,14.7,14.7,0,0,1,8.15,1.09,7.32,7.32,0,0,1,3.85,3.6,5.3,5.3,0,0,1,.37,1.85c0,.73-.37,1.06-1.1,1.08h-1.66Z"/><path class="cls-1" d="M221.55,51.35c-.53,0-1,0-1.39,0a1.32,1.32,0,0,1-1.4-1.4c0-.64,0-1.28,0-1.92A1.21,1.21,0,0,1,220,46.78c.5-.05,1,0,1.55,0,0-.28,0-.47,0-.67,0-2.16,0-4.32,0-6.48,0-1.56.69-2.24,2.24-2.24.71,0,1.42,0,2.13,0A1.89,1.89,0,0,1,228,39.46c0,2.21,0,4.42,0,6.63v.62l.58,0c1.13,0,2.25,0,3.37,0s1.65.47,1.66,1.67c0,.48,0,1,0,1.45a1.34,1.34,0,0,1-1.47,1.49c-1.18,0-2.35,0-3.52,0H228c0,.2,0,.37,0,.54V62a7.2,7.2,0,0,0,.08,1.14,3.05,3.05,0,0,0,3.14,2.72c.26,0,.52,0,.78,0a1.4,1.4,0,0,1,1.47,1.42c0,.73,0,1.45,0,2.18a1.29,1.29,0,0,1-1.22,1.37,15,15,0,0,1-5.7-.43,7.2,7.2,0,0,1-5-6.78c-.09-3.87,0-7.74,0-11.6C221.54,51.82,221.55,51.62,221.55,51.35Z"/><path class="cls-1" d="M235.36,54.12V39.67c0-1.62.67-2.29,2.29-2.29.78,0,1.56,0,2.34,0a1.85,1.85,0,0,1,1.95,1.85c0,.18,0,.35,0,.52q0,14.37,0,28.75a5.77,5.77,0,0,1,0,.83,1.69,1.69,0,0,1-1.54,1.51,32.32,32.32,0,0,1-3.41,0,1.73,1.73,0,0,1-1.59-1.64c0-.24,0-.49,0-.73Z"/><path class="cls-1" d="M56.91,45.61a9.78,9.78,0,0,1-.55,1.23c-.07.13-.33.18-.52.22-1.64.33-3.28.63-4.91,1a3.79,3.79,0,0,0-1.33.67.91.91,0,0,0-.19,1.47,3.76,3.76,0,0,0,.83.76,10,10,0,0,0,4.12,1.61,4,4,0,0,0,2.24-.5,5.51,5.51,0,0,1,3.89-.32c1.3.38,2.6.8,3.87,1.29.94.37,1.83.86,2.74,1.3-.27,1-.74,1.23-1.65.91-1.66-.58-3.32-1.16-5-1.65a4.1,4.1,0,0,0-3,.17c-2.31,1.19-4.45.64-6.58-.45-.59-.3-1.15-.68-1.76-1a1.49,1.49,0,0,0,0,1.62A10,10,0,0,0,55,58.42a.55.55,0,0,1,.46.52c0,.34.12.67.2,1.08a11,11,0,0,1-5.55-2.14,5.13,5.13,0,0,0,0,1.41,3.9,3.9,0,0,0,.68,1.31c.69.88,1.44,1.72,2.17,2.57a2,2,0,0,0,2.32.73,6.66,6.66,0,0,1,5.64.87,19.08,19.08,0,0,1,4.19,3.11c.17.17.33.35.49.53a1.09,1.09,0,0,1,.1.17l-1.29,1a14.82,14.82,0,0,0-4-3.12,15.17,15.17,0,0,0-2.68-1.08A4.12,4.12,0,0,0,55,65.7l-8.83,3.69A3.11,3.11,0,0,0,44,72.68c0,.51,0,1,0,1.55,0,1.13-.36,1.48-1.5,1.47H42.1a15.38,15.38,0,0,1,.2-4.84,4.25,4.25,0,0,1,2.44-2.62c1.55-.73,3.15-1.39,4.73-2.07l2.64-1.09c-.24-.26-.45-.47-.65-.7-.8-.93-1.64-1.83-2.38-2.8a4.7,4.7,0,0,1-.81-4.22,1.67,1.67,0,0,0-.34-1.59,9.62,9.62,0,0,1-.73-1.07A3,3,0,0,1,46.83,52,2.8,2.8,0,0,0,46.77,50a1.33,1.33,0,0,1,.4-1.65A9.56,9.56,0,0,1,49.29,47a20.11,20.11,0,0,1,7.44-1.41Z"/><path class="cls-1" d="M49.57,34.46c-.41-.48-.76-.9-1.13-1.3a.64.64,0,0,0-.33-.1,4.92,4.92,0,0,1-4.34-4.45.6.6,0,0,0-.25-.41,3.68,3.68,0,0,1-.64-5.32,3.88,3.88,0,0,1,5.43-.58.91.91,0,0,0,.5.17,4.72,4.72,0,0,1,5.08,3.18.82.82,0,0,0,.63.57,2,2,0,0,1,1.42,1.24.48.48,0,0,0,.29.27c0-.19.05-.38.06-.58a4.56,4.56,0,0,1,3.12-3.88,2.84,2.84,0,0,0,1.33-.77A3.76,3.76,0,0,1,65.28,22a3.68,3.68,0,0,1,1.8,4,8.49,8.49,0,0,1-.64,1.28c-.07.14-.19.32-.15.45a3.85,3.85,0,0,1-2.13,4.1,1,1,0,0,0-.58.64,3.59,3.59,0,0,1-3.72,2.12c-.12,0-.31-.15-.3-.22a.49.49,0,0,1,.21-.36,6.44,6.44,0,0,1,.7-.34,3.93,3.93,0,0,0,2-2.37,1,1,0,0,1,.44-.49,2.72,2.72,0,0,0,1.77-3.37.69.69,0,0,1,.16-.53,2.13,2.13,0,1,0-3.3-2.65.71.71,0,0,1-.43.27A3.73,3.73,0,0,0,57.66,28c0,.15,0,.34-.11.43a4.13,4.13,0,0,0-1,2.05c-.05.2-.25.36-.38.54a3.88,3.88,0,0,1-.36-.57,17.2,17.2,0,0,0-.85-2,2.63,2.63,0,0,0-1.77-1.07.64.64,0,0,1-.43-.39,4,4,0,0,0-4.35-2.89,1.23,1.23,0,0,1-1.06-.29,2.05,2.05,0,0,0-3,.36,2.1,2.1,0,0,0,.5,3,.8.8,0,0,1,.41.69A4.07,4.07,0,0,0,49,31.55a.77.77,0,0,1,.5.31,3.71,3.71,0,0,0,2.64,2,.75.75,0,0,1,.34.09c.13.1.32.27.31.39a.58.58,0,0,1-.36.34c-.33.11-.69.12-1,.24a2.11,2.11,0,0,0-.9.48,1.64,1.64,0,0,1-1.46.5,4.21,4.21,0,0,0-2.73.83,2.59,2.59,0,0,0-1,1.46.61.61,0,0,1-.27.39,2.19,2.19,0,0,0-.73,3.14,2.15,2.15,0,0,0,3.16.27l.12-.08a8.55,8.55,0,0,0,1.16.43,2.83,2.83,0,0,0,2.93-1.12,1.05,1.05,0,0,1,.63-.31,4.85,4.85,0,0,0,3.54-1.45c.09-.1.28-.1.43-.15,0,.17.12.37.06.52a3.42,3.42,0,0,1-2.46,2.37,4.59,4.59,0,0,0-2.21,1.08,3.79,3.79,0,0,1-3.15.61,1.49,1.49,0,0,0-.86.13,3.9,3.9,0,0,1-4.6-.82,3.7,3.7,0,0,1-.43-4.54c.31-.43.87-.68,1.19-1.11s.39-1,.73-1.39a5.75,5.75,0,0,1,4.2-1.68C49,34.45,49.31,34.46,49.57,34.46Z"/><path class="cls-1" d="M67.17,73.27,63,76.55,60,78.84a9.3,9.3,0,0,1-6.33,1.81c0-.22,0-.42,0-.62,0-.7.33-1,1-1a8.27,8.27,0,0,0,3.21-.7,3.34,3.34,0,0,0,2.11-3.21v-.83a3.29,3.29,0,0,0-2-3.14c-.67-.32-1.35-.59-2.11-.92.51-.3,1-.59,1.48-.86a.57.57,0,0,1,.34,0c.16,0,.31.14.47.2a4.68,4.68,0,0,1,3.34,5c0,.26,0,.51,0,.77,0,0,0,0,.06.1l7.9-5.87.87,1.14-1.73,1.38c.33.26.61.53.93.74a6.91,6.91,0,0,0,5.94,1,28.21,28.21,0,0,1,8.85-1.13c2,0,3.94,0,5.91,0a13.42,13.42,0,0,0,8.63-3,24.66,24.66,0,0,0,7.14-8.54l.38-.72,1.59,1c-.8,1.35-1.52,2.73-2.4,4a22.74,22.74,0,0,1-10,8.3,12.79,12.79,0,0,1-5,.89c-2.23,0-4.46,0-6.68,0a24.88,24.88,0,0,0-7.58,1A9.28,9.28,0,0,1,67.17,73.27Z"/><path class="cls-1" d="M256.68,42.44h-9.27c-1.35,0-1.59-.24-1.59-1.6,0-.3,0-.59,0-.88a1.07,1.07,0,0,1,1-1.15c1.27-.16,2.54-.28,3.81-.41l11.08-1.1,4.33-.42a1.48,1.48,0,0,1,1.83,1.59c0,.82,0,1.66,0,2.48a1.35,1.35,0,0,1-1.44,1.48c-.62,0-1.25,0-1.87,0Z"/><path class="cls-1" d="M87.11,68.44c1.32-.47,2.6-.87,3.84-1.37a5.81,5.81,0,0,0,2.6-2.38A22,22,0,0,1,98,59.47c.82-.68,1.74-1.23,2.62-1.85a.55.55,0,0,1,.74.05c.3.23.63.42,1,.68-3.51,1.75-5.82,4.59-7.72,7.92A4.6,4.6,0,0,0,98,65.7c1-.54,1.89-1.2,2.82-1.8a1.6,1.6,0,0,1-.54,2.09,10,10,0,0,1-4.56,2,3,3,0,0,1-1.23,0,2.75,2.75,0,0,0-2.18.38,22,22,0,0,1-7.7,2.11c-2.21.23-4.44.27-6.67.4-.17,0-.34,0-.5,0-.1-1,.32-1.44,1.24-1.51,2.07-.15,4.13-.34,6.19-.52a2.57,2.57,0,0,0,.41-.11,6.06,6.06,0,0,0-2-2.92A2.34,2.34,0,0,0,81,65.62c-1.6.58-3.19,1.21-4.76,1.86-.95.4-1.87.89-2.85,1.36l-.86-1.14c.52-.29,1-.59,1.5-.85a43.42,43.42,0,0,1,6.81-3,3.88,3.88,0,0,1,4.31,1.21A9.14,9.14,0,0,1,87.11,68.44Z"/><path class="cls-1" d="M57.71,49.7l.47-1.13a29.74,29.74,0,0,1,6.15-9.8,13.27,13.27,0,0,0,3.39-6.41,6.17,6.17,0,0,1,1.9-3.59,4.85,4.85,0,0,1,5.25-1,11.54,11.54,0,0,0,5.29.93,1.62,1.62,0,0,1,.33,0l-1.75,2.59,2.33,1.78-1.74.64A7.19,7.19,0,0,0,76.1,36c-.17.21-.49.29-.74.44a2.42,2.42,0,0,1,.1-.86,5.18,5.18,0,0,1,3-2.92L77,31.59l1.1-1.5a6.26,6.26,0,0,1-3.37-.62,3.64,3.64,0,0,0-5,2.63c-.17.58-.3,1.17-.46,1.76A12.18,12.18,0,0,1,66.52,39a36.06,36.06,0,0,0-6.59,10.33.56.56,0,0,1-.62.39C58.81,49.68,58.31,49.7,57.71,49.7Z"/><path class="cls-1" d="M83,37.17,81.81,40l2.65,1.16c-.4.31-.78.57-1.12.87a11,11,0,0,0-3.8,7.94c0,.52-.05,1-.11,1.55a1.53,1.53,0,0,1-.23.46c-.12-.13-.32-.25-.36-.41a9.54,9.54,0,0,1,2.9-10.11.64.64,0,0,0,.06-.12l-1.6-.67c.12-.3.24-.57.35-.83l.37-.93c-1.29.7-2.49.3-3.7.18a3.81,3.81,0,0,0-4.12,3.5c-.08.78-.08,1.56-.2,2.32a4.16,4.16,0,0,1-.51,1.56c-1.37,2.13-2.8,4.22-4.23,6.35l-1.66-.87c.15-.26.26-.5.41-.72.8-1.15,1.53-2.35,2.42-3.42a8.06,8.06,0,0,0,1.92-5.17A5.4,5.4,0,0,1,72.7,39a4.87,4.87,0,0,1,4.84-1.57,10.89,10.89,0,0,0,5.11-.2Z"/><path class="cls-1" d="M129.13,28.52c0,.59,0,1.11,0,1.62a.43.43,0,0,1-.24.32c-2.61.84-5.22,1.69-7.84,2.49a5.58,5.58,0,0,1-1.64.18,2.75,2.75,0,0,1-3-2.88c0-.17,0-.34,0-.51l-.13-.06-3.73,5.6-1.27-1.36c.3-.4.62-.77.88-1.17q3-4.52,5.89-9.07a.61.61,0,0,1,.6-.37c.46,0,.93,0,1.48,0l-.23.55a19.16,19.16,0,0,0-1.67,4.88,5.86,5.86,0,0,0-.08,1.18c0,1,.52,1.48,1.5,1.43a9.48,9.48,0,0,0,2.24-.39c2.25-.72,4.47-1.51,6.71-2.27C128.7,28.64,128.87,28.6,129.13,28.52Z"/><path class="cls-1" d="M57,60.58l4.7-.36.12-.23c-.49-.78-.93-1.59-1.48-2.32a1.74,1.74,0,0,0-1.79-.57,18,18,0,0,0-1.75.45c-.71.2-1.1,0-1.21-.75,0-.12.07-.33.16-.36a27,27,0,0,1,3.4-1A2.71,2.71,0,0,1,62,56.74c.42.64.76,1.31,1.13,2s.67,1.32,1.06,2a6.51,6.51,0,0,0,8,3c1.13-.33,2.21-.87,3.31-1.31.16-.07.3-.16.45-.23l0,.07c.48,1.32.48,1.32-.79,1.92a13.51,13.51,0,0,1-4.34,1.29A8.22,8.22,0,0,1,63.05,62a.82.82,0,0,0-.89-.36c-1.29.15-2.58.25-3.87.28C57.24,62,57,61.68,57,60.58Z"/><path class="cls-1" d="M78.13,62.83c-.5-1.39-.49-1.39.72-2a25,25,0,0,1,9.42-3h.33c.05.77.08,1.52.16,2.27a4.51,4.51,0,0,0,.29,1.15.89.89,0,0,0,1.32.48,4.09,4.09,0,0,0,1.18-.82c1.62-1.8,3.19-3.62,4.78-5.44.19-.22.36-.45.55-.69l1.15.85c-.35.45-.67.89-1,1.32-1.26,1.53-2.49,3.09-3.81,4.56A10.19,10.19,0,0,1,91,63.35a2.3,2.3,0,0,1-3.63-1.18,18.15,18.15,0,0,1-.66-2.35A20.4,20.4,0,0,0,78.13,62.83Z"/><path class="cls-1" d="M131,32.3c0,.64,0,1.15,0,1.67,0,.14-.21.32-.37.38-2.17.88-4.36,1.73-6.53,2.62a2.67,2.67,0,0,0-.63.5c.26.09.53.29.78.26,1.33-.14,2.66-.33,4-.51.25,0,.5-.09.85-.15,0,.44,0,.86,0,1.28,0,.09-.24.21-.39.24a22,22,0,0,1-5.65.62,14.46,14.46,0,0,0-6,1.18l-.34.13h-.13l-1-1.4A138.89,138.89,0,0,1,131,32.3Z"/><path class="cls-1" d="M79.17,58.54c-2.81,1.48-5.61,2.91-8.86,3a5.24,5.24,0,0,1-2-.32,1.94,1.94,0,0,1-1.06-2.78,6.1,6.1,0,0,1,1.42-1.74,20,20,0,0,1,5.78-3.15l.9,1.15c-1,.43-1.9.8-2.78,1.25A25.65,25.65,0,0,0,70,57.44a3.59,3.59,0,0,0-1,1.08.82.82,0,0,0,.6,1.33,7.54,7.54,0,0,0,2.6-.09c1.54-.43,3-1.06,4.52-1.62a4.74,4.74,0,0,0,.51-.24C78.29,57.4,78.52,57.47,79.17,58.54Z"/><path class="cls-1" d="M77.32,54.78a8.23,8.23,0,0,1,3.85-1.46,20.36,20.36,0,0,1,5.57.25,13.76,13.76,0,0,0,7.32-.84.62.62,0,0,1,.87.22,6.37,6.37,0,0,0,.69.68,14.84,14.84,0,0,1-3.91,1.55,14.2,14.2,0,0,1-5.55,0,15.36,15.36,0,0,0-7.07.32c-1,.32-1,.31-1.58-.5Z"/><path class="cls-1" d="M122.39,61.78A2.06,2.06,0,0,1,122,62c-.08,0-.18-.09-.26-.14a38.4,38.4,0,0,1-12-12.42,5.26,5.26,0,0,1-.39-.79c0-.1,0-.33.07-.35a.6.6,0,0,1,.41.06c.09,0,.14.14.21.22a139.25,139.25,0,0,0,12,12.69C122.07,61.4,122.19,61.56,122.39,61.78Z"/><path class="cls-1" d="M59.37,41.17l-3.48-6.54.68-.74c1,1.38,2,2.7,3,4.06.37.53.89,1.16.87,1.71S59.73,40.68,59.37,41.17Z"/><path class="cls-1" d="M82.88,47.29c.23-.45.42-.84.64-1.2a.47.47,0,0,1,.36-.21c2,0,4.07,0,6.1,0a.46.46,0,0,1,.36.19c.19.38.34.78.52,1.22Z"/><path class="cls-1" d="M59,32.4l-.85-.51A11.46,11.46,0,0,1,60.56,28c.43-.43.87-.84,1.33-1.23.1-.09.3-.06.45-.08,0,.14,0,.31,0,.41C61.21,28.87,60.08,30.62,59,32.4Z"/><path class="cls-1" d="M52.62,31.19c-1.41-1.18-2.8-2.34-4.18-3.51a4.13,4.13,0,0,1-.55-.47,1.67,1.67,0,0,1-.2-.47,1.27,1.27,0,0,1,.51,0,12,12,0,0,1,4.16,2.73c.31.32.61.65.92,1Z"/><path class="cls-1" d="M53.77,36.87l.26.86-2.67.91c-1.06.36-2.11.73-3.18,1.07-.14,0-.33,0-.5-.06.06-.14.09-.33.2-.42a11.77,11.77,0,0,1,5.74-2.4Z"/><path class="cls-1" d="M90,26a.9.9,0,0,1,.21,0c.49.12,1,.22,1.19.77s-.38.77-.72,1a4.64,4.64,0,0,1-1.11.62.69.69,0,0,1-1-.57A1.46,1.46,0,0,1,90,26Z"/><path class="cls-1" d="M72.63,32a1.32,1.32,0,0,1,.75-1.25,1.37,1.37,0,0,1,1.44.28.66.66,0,0,1,.12,1,2.22,2.22,0,0,1-1.49.84C72.92,33,72.61,32.61,72.63,32Z"/><path class="cls-1" d="M76.19,41.65a4.24,4.24,0,0,1,.7-1.06,1.21,1.21,0,0,1,1.37.07.67.67,0,0,1,.28,1,2.17,2.17,0,0,1-1.39,1c-.51.13-.84-.26-.83-1Z"/></svg>