<svg id="Layer_1" data-name="Layer 1" xmlns="http://www.w3.org/2000/svg" width="310" height="106" viewBox="0 0 310.56 106.87"><defs><style>.cls-1{fill:gray;}</style></defs><path class="cls-1" d="M287.07,69H282.3V52.29l-.26-.1-9.1,12-9-11.94-.23,0V69H259V37.32l14,18.87,8.1-10.89,5.28-7.1c.21-.27.47-.5.7-.75Z"/><path class="cls-1" d="M235.61,69.82a44.89,44.89,0,0,1-4.92-1.09,16.18,16.18,0,0,1-10.78-17.61A16.49,16.49,0,0,1,252.3,49.9,16.12,16.12,0,0,1,243.53,68a35,35,0,0,1-5.73,1.67c-.3.08-.61.13-.92.19Zm.58-4.78a11.61,11.61,0,1,0-11.71-11.81A11.7,11.7,0,0,0,236.19,65Z"/><path class="cls-1" d="M69.15,69.82a44.89,44.89,0,0,1-4.92-1.09,16.25,16.25,0,0,1-8.8-23.37,16.56,16.56,0,0,1,18.79-7.69,16.36,16.36,0,0,1,12.06,16,16.53,16.53,0,0,1-14.94,16,7.47,7.47,0,0,0-.92.18ZM69.79,65A11.62,11.62,0,1,0,58.07,53.35,11.62,11.62,0,0,0,69.79,65Z"/><path class="cls-1" d="M107.21,57.28c2.57,3.87,5.1,7.66,7.75,11.64-1.93,0-3.67,0-5.41,0-.27,0-.58-.46-.78-.76q-3.15-4.66-6.25-9.37a1.46,1.46,0,0,0-1.45-.77c-1.2.06-2.4,0-3.72,0V68.86H92.64V37.79h1.19c2.89,0,5.79.15,8.67,0,8-.49,12.16,7.72,9.59,14.16A10.53,10.53,0,0,1,107.21,57.28Zm-9.83-4c2.17,0,4.25.15,6.3,0a5.08,5.08,0,0,0,4.4-5c.17-2.59-1.45-5.23-3.85-5.56a50.37,50.37,0,0,0-6.85-.07Z"/><path class="cls-1" d="M194.19,37.79h4.59c1.94,0,3.89.06,5.82,0,6.57-.21,10.52,5.9,9.73,11.62a10.34,10.34,0,0,1-5.54,7.88l7.79,11.64c-2,0-3.7,0-5.43,0-.28,0-.59-.45-.79-.75q-3.15-4.66-6.25-9.37a1.47,1.47,0,0,0-1.44-.79c-1.2.06-2.4,0-3.75,0V68.86h-4.73ZM199,42.5V53.3c.36,0,.64.05.92.05,1.62,0,3.25.06,4.87-.06a5,5,0,0,0,4.68-4c.75-3-1.15-6.41-4-6.7A63.49,63.49,0,0,0,199,42.5Z"/><path class="cls-1" d="M46.88,69.66,28.2,49.42v19.5H23.49V37.3L42.18,57.67V37.94h4.7Z"/><path class="cls-1" d="M121.09,68.93V37.7c3.56.17,7.15-.11,10.55.59,5.21,1.07,8.32,4.84,9.83,9.75,1.93,6.28.84,12.06-3.7,17a11.92,11.92,0,0,1-8.33,3.86C126.7,69.05,124,68.93,121.09,68.93Zm4.66-4.47c4.05.46,7.46-.42,9.84-3.85a13.09,13.09,0,0,0-.79-15.37c-2.4-2.79-5.57-3.25-9.05-2.84Z"/><path class="cls-1" d="M163,41.07l-3.71,2.52a4.39,4.39,0,0,0-3.92-1.73,3.08,3.08,0,0,0-2.94,3.78,5.54,5.54,0,0,0,2,3.27c1.54,1.35,3.09,2.67,4.63,4a13,13,0,0,1,4.15,5.72c1.69,5.06-1.49,9.94-7,10.72-4.43.63-8.24-1.78-9.94-6l3.85-1.85A21.88,21.88,0,0,0,152.33,64a4.22,4.22,0,0,0,5.27.19,4.17,4.17,0,0,0,.9-5.42,12.18,12.18,0,0,0-2.06-2.37c-2.17-2-4.55-3.9-6.57-6.08a7.76,7.76,0,0,1-1-9.52A8.47,8.47,0,0,1,159.06,38,9.2,9.2,0,0,1,163,41.07Z"/><path class="cls-1" d="M187.72,42.16H180.3V68.91h-5V42.18h-7.48V37.92h19.86Z"/></svg>