<svg id="Layer_1" data-name="Layer 1" xmlns="http://www.w3.org/2000/svg" width="310" height="106" viewBox="0 0 329.47 106.87"><defs>
    <style>.cls-1{fill:gray;}</style></defs>

    <g xmlns="http://www.w3.org/2000/svg" style="transform: translate(-16%, -14%) scale(1.3);"><path class="cls-1" d="M118.59,78.43q.33,0,.33-.36V69.12c0-.23-.11-.35-.33-.35v-.35h2.94v.35c-.09,0-.13.07-.13.2a1.16,1.16,0,0,0,.34.55l4.94,5.87V69.12c0-.23-.15-.35-.45-.35v-.35h2.6v.35c-.22,0-.33.12-.33.35v8.95q0,.36.33.36v.35H126v-.35c.15,0,.23-.06.23-.18s-.1-.24-.28-.45l-5.25-6.27v6.54c0,.24.13.36.4.36v.35h-2.55Z"/><path class="cls-1" d="M140.39,70.54a.39.39,0,0,0-.14-.32.92.92,0,0,0-.51-.11h-5.58v2.44h3.38a1.11,1.11,0,0,0,.53-.1c.13-.08.19-.26.19-.57h.31V75h-.31c0-.3-.06-.5-.19-.58a.9.9,0,0,0-.53-.13h-3.38V77h5.75a.64.64,0,0,0,.42-.14.46.46,0,0,0,.16-.37h.31v2.7h-.31c0-.2-.05-.31-.16-.34a2.3,2.3,0,0,0-.42,0h-8v-.35a.33.33,0,0,0,.22-.09.37.37,0,0,0,.09-.27V69.12a.36.36,0,0,0-.09-.26.33.33,0,0,0-.22-.09v-.35h7.85a.82.82,0,0,0,.51-.13.47.47,0,0,0,.14-.35h.31v2.6Z"/><path class="cls-1" d="M145.09,68.77c-.17,0-.26.13-.26.37a1.12,1.12,0,0,0,0,.24,2.88,2.88,0,0,0,.13.45l1.84,5.48h0l1.82-5.55a3.68,3.68,0,0,0,.12-.39,2,2,0,0,0,0-.23c0-.24-.07-.37-.22-.37v-.35h2.94v.35a.17.17,0,0,0-.17.1.4.4,0,0,0-.05.22,2.18,2.18,0,0,0,.17.67l1.84,5.55h0l1.86-5.67a1.47,1.47,0,0,0,.12-.53.4.4,0,0,0-.08-.23.28.28,0,0,0-.21-.11v-.35h2.55v.35c-.13,0-.22.08-.29.24s-.13.35-.21.59l-2.48,7.53-.18.55a1.41,1.41,0,0,0-.08.39.37.37,0,0,0,.09.25.3.3,0,0,0,.24.11v.35H152v-.35l.22-.12a.25.25,0,0,0,.11-.22,1.22,1.22,0,0,0-.06-.35c0-.13-.11-.32-.2-.55l-2-5.82h0l-1.88,5.7a4.62,4.62,0,0,0-.26,1,.37.37,0,0,0,.23.4v.35h-2.67v-.35a.42.42,0,0,0,.21-.06.21.21,0,0,0,.1-.2,1.05,1.05,0,0,0-.06-.33c0-.12-.08-.25-.13-.38l-2.75-8.14a3.28,3.28,0,0,0-.15-.36.35.35,0,0,0-.25-.19v-.35h2.67Z"/><path class="cls-1" d="M167.15,68.42v.35a1,1,0,0,0-.3,0c-.09,0-.13.11-.13.25a2,2,0,0,0,.24.56l.59,1c.22.38.46.76.7,1.16s.43.73.58,1l2-3.17.23-.38a.43.43,0,0,0,.08-.25c0-.09-.05-.15-.16-.18a1.13,1.13,0,0,0-.3,0v-.35h3v.35a1.09,1.09,0,0,0-.26,0,.71.71,0,0,0-.25.14,1.8,1.8,0,0,0-.27.31,6.46,6.46,0,0,0-.35.56l-2.93,4.76v3.5c0,.24.13.36.4.36v.35h-2.72v-.35a.39.39,0,0,0,.26-.09.37.37,0,0,0,.1-.27v-3.5l-3.32-5.33a1,1,0,0,0-.37-.33,1,1,0,0,0-.42-.14v-.35Z"/><path class="cls-1" d="M180.58,68.3a6.29,6.29,0,0,1,1.93.32,5.69,5.69,0,0,1,1.79,1A5.37,5.37,0,0,1,185.62,76a4.92,4.92,0,0,1-1.32,1.65,5.42,5.42,0,0,1-1.79,1,6.53,6.53,0,0,1-3.85,0,5.33,5.33,0,0,1-1.79-1,4.91,4.91,0,0,1-1.84-4,4.87,4.87,0,0,1,1.84-4,5.59,5.59,0,0,1,1.79-1A6.23,6.23,0,0,1,180.58,68.3Zm0,1.81a3.73,3.73,0,0,0-1.3.24,3.57,3.57,0,0,0-1.18.68,3.28,3.28,0,0,0-.85,1.09,3.48,3.48,0,0,0,0,3,3.28,3.28,0,0,0,.85,1.09,3.86,3.86,0,0,0,5,0,3.41,3.41,0,0,0,.85-1.09,3.48,3.48,0,0,0,0-3,3.41,3.41,0,0,0-.85-1.09,3.57,3.57,0,0,0-1.18-.68A3.79,3.79,0,0,0,180.58,70.11Z"/>
    
        <path class="cls-1" d="M194.54,68.42a6.19,6.19,0,0,1,1.49.16,3.25,3.25,0,0,1,1.16.53,2.5,2.5,0,0,1,.74,1,3.59,3.59,0,0,1,.25,1.43,2.72,2.72,0,0,1-.67,2,3.42,3.42,0,0,1-1.8.93L198,78.15a.51.51,0,0,0,.29.24,1.13,1.13,0,0,0,.3,0v.35h-3.22v-.35a.57.57,0,0,0,.27-.06.18.18,0,0,0,.11-.16.43.43,0,0,0-.07-.22,2.87,2.87,0,0,0-.2-.35l-1.9-3.07h-2.46v3.5a.34.34,0,0,0,.11.27.69.69,0,0,0,.41.09v.35h-3v-.35c.34,0,.5-.12.5-.36V69.12c0-.23-.16-.35-.5-.35v-.35ZM194.09,73a4.21,4.21,0,0,0,1-.11,1.62,1.62,0,0,0,.66-.31,1.09,1.09,0,0,0,.34-.46,1.73,1.73,0,0,0,0-1.16,1.18,1.18,0,0,0-.34-.47,1.76,1.76,0,0,0-.66-.3,4.21,4.21,0,0,0-1-.11h-3V73Z"/>
    
        <path class="cls-1" d="M203.29,78.07a.34.34,0,0,0,.11.27.36.36,0,0,0,.24.09v.35H201v-.35c.26,0,.38-.12.38-.36V69.12c0-.23-.12-.35-.38-.35v-.35h2.69v.35a.36.36,0,0,0-.24.09.33.33,0,0,0-.11.26v3.75l3.57-3.21.37-.39a.38.38,0,0,0,.14-.24.21.21,0,0,0-.08-.2.28.28,0,0,0-.18-.06v-.35h3.62v.35a.89.89,0,0,0-.62.3l-4,3.6,3.61,4.79a4.72,4.72,0,0,0,.53.58,1.63,1.63,0,0,0,.59.39v.35H207.7v-.35c.15,0,.22-.05.22-.14a1.11,1.11,0,0,0-.24-.43L204.74,74l-1.45,1.29Z"/>
    
        <path class="cls-1" d="M75.49,40.05a1.1,1.1,0,0,1-.14.59,4.53,4.53,0,0,1-.3.46l-.33.44a1.32,1.32,0,0,0-.22.53,1.16,1.16,0,0,0-.32-.08l-.33,0A5.69,5.69,0,0,0,73,42a5.49,5.49,0,0,1-.8.06,1.06,1.06,0,0,1-.77-.28A2,2,0,0,1,71,41.1a3.16,3.16,0,0,1-.25-.89,5.51,5.51,0,0,1-.07-.86,3.09,3.09,0,0,1,.16-1,.65.65,0,0,0-.25,0,.37.37,0,0,0-.32.13.29.29,0,0,1-.27.14.4.4,0,0,1-.27-.11.4.4,0,0,0-.3-.11,1.74,1.74,0,0,0-.65.16A3.54,3.54,0,0,0,68,39a3.45,3.45,0,0,0-.63.56.9.9,0,0,0-.27.58,1.89,1.89,0,0,0-.69.2c-.21.11-.42.23-.61.35a1.11,1.11,0,0,0-.38.44,4.6,4.6,0,0,0-.29.63l-.26.68a2.4,2.4,0,0,1-.3.58,5.13,5.13,0,0,0-.51.77,1.71,1.71,0,0,0-.22.87A4,4,0,0,0,64,45.85a4.25,4.25,0,0,1,.19,1.27,5.9,5.9,0,0,1-.06.83,5.73,5.73,0,0,0-.06.81,1.56,1.56,0,0,0,.17.78,1.22,1.22,0,0,0,.47.46,2,2,0,0,0,.68.22,6.53,6.53,0,0,0,.78.05q.44,0,.84,0l.75,0a.52.52,0,0,1,.14.26.71.71,0,0,1,0,.25,2.5,2.5,0,0,1-.07.26,1,1,0,0,0,0,.3.67.67,0,0,0,0,.18.73.73,0,0,0,.45-.13.66.66,0,0,0,.28-.38.91.91,0,0,1,.22.11.23.23,0,0,1,.09.21.34.34,0,0,1-.05.19,1.22,1.22,0,0,1-.12.19.94.94,0,0,0-.12.18.38.38,0,0,0,0,.22.71.71,0,0,0,0,.14.26.26,0,0,0,.06.13.4.4,0,0,1-.25.19.85.85,0,0,1-.31.06,1,1,0,0,1-.46-.09,2.59,2.59,0,0,1-.33-.19L67,52.11a.48.48,0,0,0-.29-.09.68.68,0,0,0-.21,0l-.28.08a1.36,1.36,0,0,0-.24.13.19.19,0,0,0-.1.15.36.36,0,0,0,.09.24.33.33,0,0,1,.1.24.21.21,0,0,1-.09.19.51.51,0,0,1-.21.1,1,1,0,0,1-.25,0h-.21a6.8,6.8,0,0,1-1.35-.14,6,6,0,0,0-1.34-.15,1.51,1.51,0,0,0-.62.14,1.66,1.66,0,0,1-.66.14.48.48,0,0,1-.29-.08.69.69,0,0,1-.16-.18,1.46,1.46,0,0,0-.16-.19.38.38,0,0,0-.26-.07,2.88,2.88,0,0,0-.65.07l-.64.14c-.21.06-.43.1-.64.14a3.49,3.49,0,0,1-.65.06,2.27,2.27,0,0,1-.42,0,1.9,1.9,0,0,1-.46-.15,1.16,1.16,0,0,1-.38-.26.49.49,0,0,1-.16-.38.67.67,0,0,1,.16-.36,5,5,0,0,1,.38-.45,3.51,3.51,0,0,1,.41-.37.64.64,0,0,1,.31-.15h.55a5.15,5.15,0,0,0,.56,0,3.19,3.19,0,0,0,1-.15,3,3,0,0,0,.86-.42,2.47,2.47,0,0,0,.64-.69,1.85,1.85,0,0,0,.24-.94,2.12,2.12,0,0,0,0-.44,3.25,3.25,0,0,1,0-.44,3.94,3.94,0,0,1,.1-.9,4,4,0,0,0,.11-.91,6.6,6.6,0,0,0-.13-1.23,6.18,6.18,0,0,1-.13-1.28c0-.38,0-.76,0-1.13s0-.76,0-1.14c0-.17,0-.42,0-.76a6.8,6.8,0,0,0-.11-1,2.92,2.92,0,0,0-.3-.89.6.6,0,0,0-.54-.38,3.22,3.22,0,0,0-.76.09,3.44,3.44,0,0,1-.78.08,6.28,6.28,0,0,1-.7,0,3.81,3.81,0,0,1-.76-.17,1.7,1.7,0,0,1-.62-.38.8.8,0,0,1-.26-.64,1.73,1.73,0,0,1,.12-.7,1,1,0,0,1,.32-.41,1.33,1.33,0,0,1,.47-.19,3.48,3.48,0,0,1,.58-.05l.57,0,.57,0a10,10,0,0,0,1.1-.06,10.14,10.14,0,0,1,1.1-.06c.26,0,.51,0,.76,0a3.13,3.13,0,0,1,.75.16.79.79,0,0,1,.48.39,6.27,6.27,0,0,1,.29.58,3.22,3.22,0,0,0,.3.52.65.65,0,0,0,.56.24.55.55,0,0,0,.32-.1,1.86,1.86,0,0,0,.28-.21l.28-.23a.82.82,0,0,1,.33-.14,1.67,1.67,0,0,0,.7-.24l.64-.38a6.37,6.37,0,0,1,.63-.35,1.63,1.63,0,0,1,.7-.15,3.25,3.25,0,0,0,.56-.06,5.47,5.47,0,0,0,.68-.14,4.44,4.44,0,0,0,.64-.24,1.59,1.59,0,0,0,.48-.31,5,5,0,0,1,1.1.23,5.56,5.56,0,0,1,1.21.51,4.28,4.28,0,0,1,1,.75,1.61,1.61,0,0,1,.5,1,2.31,2.31,0,0,0,.2.63c.09.19.18.39.28.58a5.3,5.3,0,0,1,.27.59A1.68,1.68,0,0,1,75.49,40.05Z"/>
    
        <path class="cls-1" d="M95.87,49.66a1.47,1.47,0,0,1-.11.56c-.07.17-.13.35-.19.54a3.34,3.34,0,0,0-.09.39,1.25,1.25,0,0,1-.08.27.65.65,0,0,1-.16.21,2.36,2.36,0,0,1-.36.22l-1.1.56a2.66,2.66,0,0,1-1.17.29,1.93,1.93,0,0,1-.94-.24,5.2,5.2,0,0,1-.82-.52c-.25-.19-.47-.36-.67-.53a.94.94,0,0,0-.52-.24.6.6,0,0,0-.38.12,4.19,4.19,0,0,0-.33.26,2.45,2.45,0,0,1-.37.26.94.94,0,0,1-.49.12,1.51,1.51,0,0,0-.5.09l-.52.2-.53.23-.5.18a7,7,0,0,1-1.56.24q-.8,0-1.59,0h-.64a6.73,6.73,0,0,1-.88-.09,3,3,0,0,1-.78-.25.54.54,0,0,1-.33-.49.49.49,0,0,1,0-.12,1.18,1.18,0,0,1-.27.23.82.82,0,0,1-.35.08,1.08,1.08,0,0,1-.68-.38,6.69,6.69,0,0,1-.76-.88,8.51,8.51,0,0,1-.62-1,1.72,1.72,0,0,1-.26-.73.54.54,0,0,1,.11-.35.54.54,0,0,0,.11-.35,1.76,1.76,0,0,0-.06-.46,1.65,1.65,0,0,1-.06-.46,2.05,2.05,0,0,1,.12-.66,4.87,4.87,0,0,1,.3-.71c.11-.24.23-.47.36-.7s.24-.43.35-.63A1.42,1.42,0,0,1,79,44.4,5.32,5.32,0,0,1,79.7,44l.69-.31a1.87,1.87,0,0,0,.61-.41.88.88,0,0,0,.68.29,2.74,2.74,0,0,0,.85-.13,2.68,2.68,0,0,1,.84-.13,2.87,2.87,0,0,1,.67.07,3,3,0,0,0,.67.07,1.17,1.17,0,0,0,.56-.1,2.27,2.27,0,0,0,.46-.33,1.89,1.89,0,0,1,.7-.38,8.25,8.25,0,0,1,.89-.2l.92-.17a3.76,3.76,0,0,0,.82-.25,1.57,1.57,0,0,0,.59-.45,1.24,1.24,0,0,0,.22-.79,2.46,2.46,0,0,0-.32-1.17,4.74,4.74,0,0,0-1.93-2,2.41,2.41,0,0,0-1.16-.33l-.14,0-.12,0a6.38,6.38,0,0,1-.94.09,4.28,4.28,0,0,0-1,.16,1.84,1.84,0,0,0-.76.43,1.2,1.2,0,0,0-.31.9,3.82,3.82,0,0,0,.06.68,3.91,3.91,0,0,1,.06.68,1.42,1.42,0,0,1-.25.87,1.92,1.92,0,0,1-.64.56,3,3,0,0,1-.86.28,5.67,5.67,0,0,1-.9.08,2.66,2.66,0,0,1-.9-.14,1.16,1.16,0,0,1-.63-.64l-.4-.79a1.8,1.8,0,0,1-.22-.86,2.29,2.29,0,0,1,.17-.87,8.25,8.25,0,0,1,.37-.8l.41-.78a3.32,3.32,0,0,0,.28-.84,2.54,2.54,0,0,1,.34-.14l.47-.14.48-.13a3.33,3.33,0,0,0,.39-.11,7,7,0,0,0,.81-.28l.79-.31.82-.24a3.87,3.87,0,0,1,.84-.12l.54,0a10.07,10.07,0,0,1,1.52.13,8.41,8.41,0,0,1,2.94,1.09,6.18,6.18,0,0,1,1.19,1,3.92,3.92,0,0,1,.63,1,6.66,6.66,0,0,1,.4,1.19,11,11,0,0,1,.2,1.26q.06.63.06,1.17c0,.48,0,1,0,1.43s0,.94,0,1.43a10.39,10.39,0,0,0,.08,1.37c0,.46.11.92.18,1.37s.13.91.18,1.37A12.55,12.55,0,0,1,92.63,50a1.11,1.11,0,0,0,.11.51.21.21,0,0,0,.16.1.83.83,0,0,0,.62-.24,2.66,2.66,0,0,0,.42-.52,4.33,4.33,0,0,1,.42-.52.72.72,0,0,1,.57-.25l.32,0a1.09,1.09,0,0,1,.31.08.62.62,0,0,1,.22.17A.49.49,0,0,1,95.87,49.66Zm-5.7-4.31c0-.07,0-.19,0-.36a4.75,4.75,0,0,0,0-.53A2.12,2.12,0,0,0,90,44c0-.14-.13-.21-.23-.21l-.09,0a.13.13,0,0,1-.08,0c-.44.25-.82.45-1.13.6a5.2,5.2,0,0,1-.93.38,4.26,4.26,0,0,1-1,.2,11.58,11.58,0,0,1-1.3.06,3.81,3.81,0,0,0-.57.08l-1,.2-1,.23-.61.14a1.13,1.13,0,0,0-.32.18.62.62,0,0,0-.14.19l-.11.21a.67.67,0,0,1-.19.24,1.39,1.39,0,0,1-.37.22,1.31,1.31,0,0,0-.37.26,2.71,2.71,0,0,0-.49.69,1.7,1.7,0,0,0-.22.8,1.5,1.5,0,0,0,.24.84,2.11,2.11,0,0,0,.64.62,5,5,0,0,0,.9.45,6.39,6.39,0,0,0,1,.29,9.24,9.24,0,0,0,1,.16c.32,0,.59,0,.82,0a9.63,9.63,0,0,0,1-.06,9.5,9.5,0,0,0,1.15-.19,6.09,6.09,0,0,0,1.07-.35,2.33,2.33,0,0,0,.8-.58.85.85,0,0,0,.17-.25,2.26,2.26,0,0,1,.11-.22c0-.08.09-.16.14-.24a1.46,1.46,0,0,1,.25-.26,2.59,2.59,0,0,0,.62-.72A3.73,3.73,0,0,0,90,47.2a4.34,4.34,0,0,0,.12-.9C90.16,46,90.17,45.67,90.17,45.35Z"/>
    
        <path class="cls-1" d="M116,55.62a2.27,2.27,0,0,1-.38,1.17,6,6,0,0,1-.88,1.14,6.91,6.91,0,0,1-1,.86,1.64,1.64,0,0,1-.77.33,3.16,3.16,0,0,0-.87.13,5.85,5.85,0,0,0-.82.33,7.11,7.11,0,0,1-1.14.38c-.5.12-1,.24-1.6.33s-1.11.18-1.63.25a11.24,11.24,0,0,1-1.21.09l-1.07,0c-.37,0-.75-.06-1.13-.11s-.76-.13-1.12-.21a8.56,8.56,0,0,1-1-.32,1.71,1.71,0,0,1-.39-.21l-.29-.19a1.09,1.09,0,0,0-.31-.14,1.63,1.63,0,0,0-.49-.05,1.26,1.26,0,0,1-.59-.13,1.2,1.2,0,0,1-.37-.34,4,4,0,0,1-.28-.46,2.8,2.8,0,0,0-.3-.49,5,5,0,0,1-.57-1,2.87,2.87,0,0,1-.19-1.11,4.22,4.22,0,0,1,.36-1.7,5.59,5.59,0,0,1,1-1.48,4.46,4.46,0,0,0-.12-1c-.09-.33-.18-.67-.28-1s-.19-.67-.28-1a3.86,3.86,0,0,1-.13-1,1.28,1.28,0,0,1,.1-.56,1.49,1.49,0,0,1,.2-.36c.06-.1.13-.2.19-.28a.48.48,0,0,0,.1-.31s.08-.13.25-.29l.56-.55a6.87,6.87,0,0,0,.55-.66,1.08,1.08,0,0,0,.25-.61.61.61,0,0,0-.18-.42,4.89,4.89,0,0,0-.39-.4,5.11,5.11,0,0,1-.39-.42.71.71,0,0,1-.18-.47,5.12,5.12,0,0,1,.06-.78c0-.26.08-.51.14-.76s.09-.5.14-.75a5.12,5.12,0,0,0,.06-.78.33.33,0,0,0,0-.15.33.33,0,0,1,0-.15.6.6,0,0,1,.09-.33,1.43,1.43,0,0,1,.22-.26l.22-.22a.32.32,0,0,0,.09-.21.43.43,0,0,0-.1-.27.56.56,0,0,1-.11-.37v-.16a1.52,1.52,0,0,0,.46-.45,2.08,2.08,0,0,1,.43-.46,5.59,5.59,0,0,1,.82-.58c.32-.2.61-.36.87-.5a.21.21,0,0,1,.19.14.2.2,0,0,0,.2.12,1.09,1.09,0,0,0,.33-.11l.52-.26a5,5,0,0,1,.64-.26,2,2,0,0,1,.67-.11,3.52,3.52,0,0,1,.56,0l.55.08c.37,0,.7.07,1,.08a3.82,3.82,0,0,1,.8.13,2,2,0,0,1,.7.36,3.37,3.37,0,0,1,.66.8,1.91,1.91,0,0,1,.4-.28c.15-.08.3-.16.44-.25a3.57,3.57,0,0,0,.38-.3,1.11,1.11,0,0,0,.26-.4.84.84,0,0,0,.34.08.54.54,0,0,0,.3-.1l.36-.22a4.79,4.79,0,0,1,.49-.21,1.8,1.8,0,0,1,.65-.11,5.57,5.57,0,0,1,1.16.12,10.61,10.61,0,0,0,1.15.18,2.71,2.71,0,0,0,.16.75c.08.24.16.48.26.72s.17.48.25.73a2.65,2.65,0,0,1,.11.74,1,1,0,0,1-.27.59,3.58,3.58,0,0,1-.66.62,3.78,3.78,0,0,1-.83.47,2,2,0,0,1-.79.19l-.11,0a.11.11,0,0,1-.06-.11.44.44,0,0,1,.11-.29.39.39,0,0,0,.11-.29l-.26-.14-.06,0a.68.68,0,0,0-.47.15.8.8,0,0,0-.26.4,2.22,2.22,0,0,0-.12.55,4.21,4.21,0,0,0,0,.62c0,.23,0,.44,0,.65s0,.37,0,.51a4.54,4.54,0,0,1-.06.77,1.14,1.14,0,0,1-.38.65,2.15,2.15,0,0,0-.48.65c-.12.23-.23.48-.35.73a7,7,0,0,1-.39.77,2.45,2.45,0,0,1-.61.69,3.84,3.84,0,0,1-.34.31l-.19.16-.09.06h0a3,3,0,0,0-.9.13c-.29.08-.58.18-.87.27l-.87.28a3,3,0,0,1-.9.13,5.87,5.87,0,0,1-1.39-.16,6,6,0,0,0-1.41-.17,2.69,2.69,0,0,0-.78.14,3,3,0,0,0-.81.39,2.54,2.54,0,0,0-.63.59,1.13,1.13,0,0,0-.26.73,1.36,1.36,0,0,0,.1.51,1.72,1.72,0,0,0,.28.47,1.45,1.45,0,0,0,.41.33,1,1,0,0,0,.49.13,1,1,0,0,0,.55-.14,1.11,1.11,0,0,1,.54-.13.48.48,0,0,1,.34.11.55.55,0,0,0,.29.13.28.28,0,0,1,.07-.19.27.27,0,0,1,.2-.09.29.29,0,0,1,.21.12.47.47,0,0,0,.24.16.5.5,0,0,1,.25-.2.81.81,0,0,1,.31-.06,1,1,0,0,1,.39.07,2.21,2.21,0,0,1,.35.16l.33.17a.92.92,0,0,0,.31.07.41.41,0,0,0,.25-.08l.22-.18a2,2,0,0,1,.28-.19.93.93,0,0,1,.4-.07l.35,0a2,2,0,0,0,.36,0,1,1,0,0,0,.49-.13,1,1,0,0,1,.5-.13.48.48,0,0,1,.26.07l.32.15a3,3,0,0,0,.46.16,2.6,2.6,0,0,0,.67.07,1.82,1.82,0,0,1,.56.09,3.39,3.39,0,0,1,.53.2l.53.25a4.25,4.25,0,0,0,.53.19,2.41,2.41,0,0,1,.47.17,1,1,0,0,1,.25.19l.2.24a1.69,1.69,0,0,0,.33.32,2.67,2.67,0,0,0,.48.32,3.77,3.77,0,0,1,.45.23,1.19,1.19,0,0,1,.36.31,1.53,1.53,0,0,1,.23.57c.06.27.12.53.19.8A3.22,3.22,0,0,1,116,55.62Zm-2.77-.57a1.09,1.09,0,0,0-.27-.78,1.76,1.76,0,0,0-.65-.43,4,4,0,0,0-.83-.23c-.29-.06-.56-.12-.8-.19h0c-.64-.19-1.27-.35-1.91-.5a8.94,8.94,0,0,0-1.94-.21l-.12,0a2.34,2.34,0,0,1-.38-.22.48.48,0,0,0-.24.07,1.56,1.56,0,0,0-.2.16,1.56,1.56,0,0,1-.2.16.44.44,0,0,1-.23.06.92.92,0,0,1-.36-.07.76.76,0,0,0-.36-.08,2.67,2.67,0,0,0-.75.11l-.72.24c-.23.09-.47.17-.72.25a2.65,2.65,0,0,1-.74.11,1,1,0,0,0-.53.21,3.35,3.35,0,0,0-.58.5,3.69,3.69,0,0,0-.47.61,1.13,1.13,0,0,0-.19.55,3.12,3.12,0,0,0,.15,1,2.14,2.14,0,0,0,.44.78,2.22,2.22,0,0,0,.72.52,2.51,2.51,0,0,0,1,.19l.35,0A1,1,0,0,1,103,58a2.58,2.58,0,0,0,1.34.54,12,12,0,0,0,1.46.08,2,2,0,0,0,.86-.19,4.17,4.17,0,0,1,.84-.29,3.7,3.7,0,0,1,.88-.08,1.94,1.94,0,0,0,.85-.18,3.29,3.29,0,0,0,.48-.27.88.88,0,0,1,.53-.13,3.33,3.33,0,0,1,.56.05,2.63,2.63,0,0,0,.57,0,1.13,1.13,0,0,0,.54-.13,1.3,1.3,0,0,0,.43-.34,1.77,1.77,0,0,0,.26-.49,1.47,1.47,0,0,0,.1-.54l0-.18a.4.4,0,0,0,.42-.29A1.92,1.92,0,0,0,113.2,55.05Zm-3.45-13.17a3.67,3.67,0,0,0-.13-.86,4,4,0,0,0-.38-.93,3.79,3.79,0,0,0-.57-.79,1.76,1.76,0,0,0-.71-.47l-2-.71a.75.75,0,0,0-.24,0l-.17.08-.18.08a.78.78,0,0,1-.24,0,1,1,0,0,1-.42-.09,1,1,0,0,0-.39-.08.44.44,0,0,0-.32.12l-.24.24a.77.77,0,0,1-.22.17.66.66,0,0,1-.19.09l-.19.08a1.36,1.36,0,0,0-.2.11,1.38,1.38,0,0,0-.33.5q-.18.42-.36.9c-.11.33-.21.64-.29.94a2.91,2.91,0,0,0-.12.61,1.06,1.06,0,0,0,.1.3c.07.16.16.34.27.56l.36.7.38.69.33.58a1.77,1.77,0,0,0,.22.32,1,1,0,0,0,.49.39,1.79,1.79,0,0,0,.57.09l.51,0a4.71,4.71,0,0,1,.53,0,1.67,1.67,0,0,1,.39,0,1.75,1.75,0,0,0,.4,0,2.08,2.08,0,0,0,1.16-.38,5,5,0,0,0,1.08-.93,5.25,5.25,0,0,0,.79-1.21A2.76,2.76,0,0,0,109.75,41.88Zm1.73-3.63a.5.5,0,0,0-.3-.45,1,1,0,0,0-.53-.18.58.58,0,0,0-.26.06.29.29,0,0,0-.16.2.9.9,0,0,1,.24.12,1.8,1.8,0,0,1,.2.19l.21.16a.5.5,0,0,0,.27.07,1.12,1.12,0,0,0,.31-.05Z"/>
    
        <path class="cls-1" d="M167,47.72a4.51,4.51,0,0,1-.19,1.31,6,6,0,0,1-.49,1.22,6.53,6.53,0,0,1-.67,1A4,4,0,0,1,165,52h-.42a.58.58,0,0,0-.33.13l-.33.29a4.26,4.26,0,0,1-.64.13,4.92,4.92,0,0,1-.67,0,4.42,4.42,0,0,1-2.23-.56,9,9,0,0,1-1.83-1.38l-.67.37-.68.32-.22.11h0a2.14,2.14,0,0,0-.32.2l-.27.21a2.08,2.08,0,0,1-.78.49,3.78,3.78,0,0,1-.79.19,7.23,7.23,0,0,1-.79.07,3.09,3.09,0,0,0-.75.12v0l-.43-.22-.19.1c-.05,0-.06,0-.05.08a.41.41,0,0,0,.05.09.35.35,0,0,1,0,.08s0,0,0,0a1.13,1.13,0,0,1-.49-.1,1.13,1.13,0,0,0-.48-.11,2.81,2.81,0,0,0-.5,0l-.49,0a1.42,1.42,0,0,1-.55-.1l-.49-.23-.48-.22a1.12,1.12,0,0,0-.47-.11.87.87,0,0,1-.46-.18,3.53,3.53,0,0,1-.53-.44,4,4,0,0,1-.46-.55,1.45,1.45,0,0,1-.24-.49l-.37-.22a2.8,2.8,0,0,1-.35-.25l-.09-.29h0a4.26,4.26,0,0,1-.15-.54,3,3,0,0,1-.09-.63,2.87,2.87,0,0,1-.49-1,4.46,4.46,0,0,1-.14-1.09,3,3,0,0,1,.25-1.22l-.15-.26-.17-.26a7.29,7.29,0,0,1,.4-1.72,5.75,5.75,0,0,1,.84-1.52,5.44,5.44,0,0,1,1.24-1.2,5.08,5.08,0,0,1,1.67-.75,7.43,7.43,0,0,0,.76-.26,4.9,4.9,0,0,0,.61-.28c.19-.11.37-.21.54-.33a5.93,5.93,0,0,0,.51-.4,1.24,1.24,0,0,0-.14-.56l-.27-.48a2.72,2.72,0,0,1-.25-.47l-.31-.64c-.1-.22-.21-.42-.32-.62a2.46,2.46,0,0,0-.28-.43l-.16-.16a2.65,2.65,0,0,1-.33-.35,1.74,1.74,0,0,1-.13-.37c0-.19-.1-.4-.14-.62s-.08-.44-.11-.64a2.4,2.4,0,0,1,0-.43,3.5,3.5,0,0,1,.19-1.33,2.51,2.51,0,0,1,.46-.75c.18-.19.37-.39.57-.58a2.55,2.55,0,0,0,.54-.86,4.08,4.08,0,0,1,.95-.5,6.46,6.46,0,0,1,1.11-.3,11.17,11.17,0,0,1,1.18-.18l1.15-.13,1.06-.1a2.34,2.34,0,0,1,.65.33,3.71,3.71,0,0,1,.67.6,7.33,7.33,0,0,1,.62.78,9.57,9.57,0,0,1,.52.84,5.32,5.32,0,0,1,.35.79,2.06,2.06,0,0,1,.13.66,6.44,6.44,0,0,1-.06.81c0,.31-.09.61-.16.93a8.52,8.52,0,0,1-.26.9,3.35,3.35,0,0,1-.35.71.64.64,0,0,0-.11.2c0,.07-.06.14-.08.2h0c0,.13-.1.27-.16.39a.63.63,0,0,1-.28.3.8.8,0,0,0-.55.61,1.19,1.19,0,0,1-.14.31,1.48,1.48,0,0,1-.49.36l-.41.26-.35.2-.37.18-.48.19v0a2,2,0,0,1-.08.33.69.69,0,0,1-.18.28c.08.15.19.35.31.59a5.69,5.69,0,0,1,.28.62l.12.33v0a.77.77,0,0,0,.18.32,3.25,3.25,0,0,0,.26.27l.17.19a2.29,2.29,0,0,1,.31.63,3.9,3.9,0,0,1,.13.57l.09.52a1.25,1.25,0,0,0,.18.45v0l.26.41c.12.18.24.36.36.56s.26.38.39.56a2.4,2.4,0,0,0,.36.39,1,1,0,0,0,.19-.39,2.19,2.19,0,0,0,0-.36c0-.12,0-.26,0-.41a2,2,0,0,1,.12-.52h0a.09.09,0,0,1,.06-.06H159a.06.06,0,0,0,.06,0v-.23s0-.07,0-.13,0-.09,0-.08v0a2.83,2.83,0,0,0,.13-.44q.08-.35.15-.75c.06-.27.1-.52.14-.76s.07-.39.08-.48a.53.53,0,0,0,.12-.25,2.69,2.69,0,0,0,.05-.32,2,2,0,0,1,0-.34.8.8,0,0,1,.08-.26,4.32,4.32,0,0,1,.48-.74,2.93,2.93,0,0,1,.66-.56,4.25,4.25,0,0,0,.7-.43,2.86,2.86,0,0,1,.44-.3,1.74,1.74,0,0,1,.57-.18,7.38,7.38,0,0,1,1.12-.06,7.49,7.49,0,0,1,1,0,1.76,1.76,0,0,1,.77.26,1.9,1.9,0,0,1,.61.62,5.06,5.06,0,0,1,.51,1.15l0,0a1.52,1.52,0,0,1,.12.59c0,.17,0,.31,0,.42a1.25,1.25,0,0,1-.08.27.47.47,0,0,1-.14.17l-.19.16a1.14,1.14,0,0,0-.37.41c-.07.13-.12.24-.18.33a.54.54,0,0,1-.22.23,1.09,1.09,0,0,1-.53.09,2.48,2.48,0,0,1-.86-.17,6.17,6.17,0,0,1-.82-.37l-.65-.37a1.4,1.4,0,0,0-.32-.17,1,1,0,0,0-.73.43,5.63,5.63,0,0,0-.68,1,10.37,10.37,0,0,0-.56,1.17c-.15.39-.27.69-.33.9a1.53,1.53,0,0,1,.06.45c0,.22,0,.41,0,.56a3.32,3.32,0,0,1-.06.44c0,.14-.07.3-.11.47s-.08.37-.13.61a1.73,1.73,0,0,0,.08.26c0,.12.09.24.14.36a3.54,3.54,0,0,0,.16.34c.05.11.08.19.11.24v0l.2.38a1.8,1.8,0,0,1,.13.43,4.28,4.28,0,0,0,.89.48,2.75,2.75,0,0,0,1,.18,1.66,1.66,0,0,0,1.35-.6,4.46,4.46,0,0,0,.14-.77,4.77,4.77,0,0,1,.2-.91,2,2,0,0,1,.47-.75,1.29,1.29,0,0,1,.94-.31,1.31,1.31,0,0,1,1.1.38A2,2,0,0,1,167,47.72ZM155.23,49l.69-.27a6.36,6.36,0,0,0,.64-.32A2,2,0,0,0,157,48a.61.61,0,0,0,.19-.44,1.14,1.14,0,0,0-.4-.67l-.18-.16a2.52,2.52,0,0,1-.31-.44l-.24-.49-.26-.52a4.06,4.06,0,0,0-.35-.58,3.33,3.33,0,0,0-.3-.94,8.92,8.92,0,0,0-.47-.86l-.48-.8a4.26,4.26,0,0,1-.38-.81l-.12-.36c0-.11-.07-.21-.1-.32a1.69,1.69,0,0,0-.13-.27.57.57,0,0,0-.23-.2.78.78,0,0,0-.37-.08,2,2,0,0,0-.8.16,7.12,7.12,0,0,0-.74.35l-.74.38a2.76,2.76,0,0,1-.75.25,1.91,1.91,0,0,0-.8.52,1.85,1.85,0,0,0-.31.63,5.13,5.13,0,0,0-.13.66,1.3,1.3,0,0,1-.25.62v0a1.72,1.72,0,0,1-.22.33l-.23.31s0,.07-.13.1l-.3.1a1.08,1.08,0,0,0-.3.16.38.38,0,0,0-.16.25.79.79,0,0,0,.2.45.71.71,0,0,0,.3.15,1.26,1.26,0,0,0,.27,0c.08,0,.12,0,.12.05a2,2,0,0,0,.09.58c.07.19.13.38.2.56s.14.36.2.53a1.25,1.25,0,0,1,.1.48h0a.53.53,0,0,0,.14.12.67.67,0,0,1,.15.14h0c.31.34.61.64.92.92a3.49,3.49,0,0,0,1.06.64h3.29a3.53,3.53,0,0,1,.52-.27Zm1.66-17.28v0c-.11-.2-.23-.39-.34-.57a2.83,2.83,0,0,0-.4-.5,1.67,1.67,0,0,0-.52-.34,1.62,1.62,0,0,0-.68-.13,2.6,2.6,0,0,0-.82.15,3.56,3.56,0,0,0-.82.43,2.67,2.67,0,0,0-.64.61,1.17,1.17,0,0,0-.26.73v.1a2.43,2.43,0,0,0,.18.92,2.47,2.47,0,0,1,.18.92v0a1.86,1.86,0,0,1,.34.72c.09.32.18.64.28.95a4.08,4.08,0,0,0,.34.84.62.62,0,0,0,.57.35.52.52,0,0,0,.33-.12l.29-.26.05-.05a2.12,2.12,0,0,0,.25-.35l.26-.41a2.88,2.88,0,0,1,.28-.38,1,1,0,0,1,.3-.23c.08-.24.18-.49.28-.73s.21-.49.31-.75a8.11,8.11,0,0,0,.28-.78,4.31,4.31,0,0,0,.17-.81Zm1.39,18.32a1.07,1.07,0,0,0-.11-.49.49.49,0,0,0-.41-.24.57.57,0,0,1,0,.13s0,.08,0,.13,0,.33,0,.43.08.17.27.19c0,0,.05-.07.14-.08S158.28,50.09,158.28,50.05Z"/>
    
        <path class="cls-1" d="M210.73,43.79a1,1,0,0,1-.13.52.57.57,0,0,1-.49.24,2.31,2.31,0,0,0,.31.63,1.08,1.08,0,0,1,.21.66,1.5,1.5,0,0,1-.08.47c-.05.16-.11.31-.17.46s-.13.3-.2.45a2.69,2.69,0,0,0-.16.45,4.61,4.61,0,0,1-.39,1c-.2.42-.42.86-.67,1.31s-.5.87-.76,1.26a4.4,4.4,0,0,1-.64.82,1.19,1.19,0,0,1-.4.24,1.89,1.89,0,0,1-.41.1l-.43.07a1.29,1.29,0,0,0-.44.11,6.11,6.11,0,0,0-.79.44,1.41,1.41,0,0,1-.84.25.67.67,0,0,1-.34-.09,2,2,0,0,1-.31-.19,3,3,0,0,0-.3-.19.78.78,0,0,0-.35-.08,2.19,2.19,0,0,1-.57.22,5.4,5.4,0,0,1-.72.14c-.25,0-.49.06-.72.07l-.62,0a2.61,2.61,0,0,1-1.46-.39,4.67,4.67,0,0,1-1.09-1,1,1,0,0,0-.26.12l-.27.19-.26.18a.45.45,0,0,1-.19.08l0-.22-.1-.13a.41.41,0,0,0-.27.1,1.1,1.1,0,0,0-.21.22,1,1,0,0,1-.21.21.39.39,0,0,1-.28.1,1.15,1.15,0,0,1-.37-.06c-.11,0-.17-.14-.17-.31a.7.7,0,0,1,.08-.33.74.74,0,0,0,.08-.34,1.49,1.49,0,0,0-.06-.43,2,2,0,0,1-.05-.42,2,2,0,0,1,.05-.43,3.13,3.13,0,0,0,0-.44,1.93,1.93,0,0,0-.08-.52c0-.17-.11-.34-.16-.51s-.12-.33-.17-.5a1.84,1.84,0,0,1-.08-.53,1.52,1.52,0,0,1,.16-.69,1.67,1.67,0,0,0,.16-.7.49.49,0,0,0,0-.19A.91.91,0,0,0,195,46a1.26,1.26,0,0,1-.07-.16,1,1,0,0,1,0-.29v-.4c0-.15,0-.25,0-.31a2.32,2.32,0,0,0,0-.53,3.19,3.19,0,0,1-.05-.54,3.48,3.48,0,0,1,.12-.9,3.48,3.48,0,0,0,.12-.9,8.11,8.11,0,0,0-.09-1.21,7.29,7.29,0,0,1-.1-1.23,1.82,1.82,0,0,1,.06-.46c0-.15.09-.3.14-.45s.1-.29.14-.44a1.65,1.65,0,0,0,.06-.46,5.7,5.7,0,0,0-.07-.92q-.06-.45-.15-.9c0-.31-.09-.62-.14-.92a7.26,7.26,0,0,1-.06-.93c0-.19,0-.37,0-.55s0-.36,0-.54a2.17,2.17,0,0,0-.28-1.24,1.54,1.54,0,0,0-.7-.59,3,3,0,0,0-.91-.22,8.39,8.39,0,0,1-.91-.11,1.65,1.65,0,0,1-.7-.29.94.94,0,0,1-.28-.76,1.08,1.08,0,0,1,.25-.74,1.54,1.54,0,0,1,.6-.43,3,3,0,0,1,.77-.19,6.92,6.92,0,0,1,.76,0,9.66,9.66,0,0,1,1.78.16,12,12,0,0,0,1.79.2.36.36,0,0,1,.26.19.79.79,0,0,1,0,.35c0,.14,0,.29-.07.47a2.44,2.44,0,0,0-.06.55c0,.38,0,.76,0,1.15s0,.72,0,1c0,.1,0,.28,0,.55s0,.56,0,.89,0,.68.08,1a7.89,7.89,0,0,0,.16,1,3.61,3.61,0,0,0,.23.74c.09.19.21.29.35.29a.62.62,0,0,0,.32-.09,1.68,1.68,0,0,0,.29-.2l.26-.26a1,1,0,0,1,.29-.19A3.25,3.25,0,0,1,200,36a5.29,5.29,0,0,1,.86-.08.58.58,0,0,0,.31-.08l.32-.18a2.59,2.59,0,0,1,.33-.19.92.92,0,0,1,.38-.08,1.49,1.49,0,0,1,.47.07,4.68,4.68,0,0,1,.45.19l.45.2A1.67,1.67,0,0,0,204,36l.7.08a2.7,2.7,0,0,1,.69.18.67.67,0,0,1,.27.21.63.63,0,0,0,.25.2.68.68,0,0,0,.36.14l.35,0a1.41,1.41,0,0,1,.79.33l.52.42c.17.15.34.3.5.46a4.07,4.07,0,0,1,.41.52,1.73,1.73,0,0,1,.26.61,13.27,13.27,0,0,0,.36,1.45,5,5,0,0,0,.62,1.35,4,4,0,0,1,.46.87A2.69,2.69,0,0,1,210.73,43.79ZM209,44.5a.47.47,0,0,0-.18-.35,2.43,2.43,0,0,0-.35-.2,1.11,1.11,0,0,1-.29-.16c-.08-.06-.09-.14,0-.26a.27.27,0,0,1,.11-.18.33.33,0,0,1,.17,0,1.79,1.79,0,0,0-.3-.73,4.13,4.13,0,0,1-.38-.76,2.86,2.86,0,0,1-.14-.49,2.58,2.58,0,0,0-.1-.42,1.37,1.37,0,0,0-.2-.35,1.67,1.67,0,0,0-.41-.34l-.34-.19a1.21,1.21,0,0,1-.22-.15.85.85,0,0,1-.17-.2,1.91,1.91,0,0,1-.19-.36.91.91,0,0,0-.25-.39.92.92,0,0,0-.33-.16,2.15,2.15,0,0,0-.4-.09,1.93,1.93,0,0,1-.44-.12c-.38-.14-.74-.26-1.09-.36a4.14,4.14,0,0,0-1.14-.15,4.88,4.88,0,0,0-2,.36,3.48,3.48,0,0,0-1.32,1,4.4,4.4,0,0,0-.79,1.54,9.39,9.39,0,0,0-.36,1.95,6.15,6.15,0,0,1-.12.83c-.07.28-.13.55-.2.82s-.14.55-.19.82a4,4,0,0,0-.09.84.87.87,0,0,0,0,.26.47.47,0,0,0,.15.22,1.36,1.36,0,0,1,.34.73c0,.25.05.5.07.74a1.88,1.88,0,0,0,.15.64.8.8,0,0,0,.55.42,1.81,1.81,0,0,1,.39.18,1.14,1.14,0,0,1,.22.22c0,.08.11.17.16.27a2.31,2.31,0,0,0,.22.32,4.57,4.57,0,0,1,.74-.12q.39,0,.75-.12a.4.4,0,0,0,.22.36,1.7,1.7,0,0,0,.51.21,3.82,3.82,0,0,0,.59.09l.46,0,.63,0a2.6,2.6,0,0,0,.63-.11,2.41,2.41,0,0,0,.57-.25,1.19,1.19,0,0,0,.43-.46,1.61,1.61,0,0,1,.61-.65,7.77,7.77,0,0,1,.71-.35,3.59,3.59,0,0,0,.66-.39,1.47,1.47,0,0,0,.46-.74c.13-.41.26-.82.4-1.24a4.05,4.05,0,0,0,.21-1.29,2.48,2.48,0,0,0-.18-.87,4.1,4.1,0,0,1,.43.26.72.72,0,0,0,.46.16.16.16,0,0,0,.13-.06A.33.33,0,0,0,209,44.5Z"/>
    
        <path class="cls-1" d="M231.37,45.11a1.21,1.21,0,0,1-.08.46,2.14,2.14,0,0,1-.17.37l-.17.26a.34.34,0,0,0-.08.12.72.72,0,0,0,.11.36.78.78,0,0,1,.11.42c0,.07,0,.12-.07.14a.51.51,0,0,1-.17,0,1,1,0,0,1-.26,0c0,.22,0,.43.06.64a4.48,4.48,0,0,1,0,.64,1.42,1.42,0,0,1-.1.65.37.37,0,0,1-.2.18l-.2.08c-.06,0-.09.14-.09.32a.73.73,0,0,1-.22.4,4.92,4.92,0,0,1-.52.48,3.39,3.39,0,0,1-.62.42,1.15,1.15,0,0,1-.51.17l-.13,0c0,.09,0,.19,0,.29s0,.21,0,.3a.31.31,0,0,1-.14.3l-.31.15a2.59,2.59,0,0,0-.54.35l-.57.48c-.2.16-.4.3-.6.43a1.21,1.21,0,0,1-.63.18,1,1,0,0,1-.51-.14,1.1,1.1,0,0,0-.55-.14,1.32,1.32,0,0,0-.47.08l-.35.17-.34.17a.84.84,0,0,1-.4.08,2,2,0,0,1-.9-.23,5.27,5.27,0,0,0-.87-.37,2.09,2.09,0,0,0-.52-.13l-.53-.1a2.09,2.09,0,0,1-.5-.16,1.38,1.38,0,0,1-.4-.32,3.55,3.55,0,0,0-.85-.75c-.33-.2-.65-.38-1-.55s-.66-.36-1-.55a2.88,2.88,0,0,1-.81-.75c-.18-.25-.37-.51-.59-.79a9.4,9.4,0,0,1-.62-.89,6.61,6.61,0,0,1-.48-1,2.72,2.72,0,0,1-.19-1,3.82,3.82,0,0,1,.07-.68l.15-.66.15-.67a3.82,3.82,0,0,0,.07-.68v-.19a.29.29,0,0,0-.06-.15,1,1,0,0,0-.11-.17l-.12-.14s-.06-.06-.08-.06,0,0,0,0a4.45,4.45,0,0,1,.09-.48c.06-.21.12-.43.19-.65s.13-.44.2-.63a1.32,1.32,0,0,1,.19-.37l.2-.18a.33.33,0,0,0,.1-.25,3,3,0,0,0,0-.31,2.83,2.83,0,0,1,0-.3c0-.14,0-.22.06-.25a.2.2,0,0,1,.14,0l.17,0c.06,0,.11-.08.17-.18l.3-.58a4.78,4.78,0,0,1,.32-.5,2.59,2.59,0,0,1,.4-.41,3.2,3.2,0,0,1,.56-.37,3.12,3.12,0,0,0,.54-.38l.55-.45a3.26,3.26,0,0,1,.56-.38,1.33,1.33,0,0,1,.62-.16,2.61,2.61,0,0,0,.91-.16,5.61,5.61,0,0,1,.89-.25l1.41-.2a11.32,11.32,0,0,1,1.43-.1,4.91,4.91,0,0,1,1,.13,11.66,11.66,0,0,1,1.17.34,10.65,10.65,0,0,1,1.13.47,4.39,4.39,0,0,1,.84.52v0a1.51,1.51,0,0,1-.09.5,1.41,1.41,0,0,0-.09.49V38s0,0,0,0a2,2,0,0,0,.56-.07,1.79,1.79,0,0,1,.57-.08.47.47,0,0,0,.26.4l.45.19a1.12,1.12,0,0,1,.39.37,3.88,3.88,0,0,1,.33.61c.11.22.21.44.31.66a4.38,4.38,0,0,0,.28.54,2,2,0,0,1,.25.49,3.82,3.82,0,0,1,.19.6,4.52,4.52,0,0,1,.12.62c0,.2,0,.39,0,.56a1.16,1.16,0,0,1-.13.58,2.56,2.56,0,0,1-.28.42l-.29.34a.58.58,0,0,0-.13.37.56.56,0,0,0,0,.23.85.85,0,0,0,.14.19l.15,0c.07,0,.11-.05.11-.11v0a.42.42,0,0,0-.11-.26.38.38,0,0,1-.11-.29.36.36,0,0,1,0-.11c0-.05.05-.08.09-.08a.25.25,0,0,1,.2.13,2.83,2.83,0,0,1,.2.28,1.48,1.48,0,0,1,.15.25c0,.07,0,.09,0,.07v0a1,1,0,0,1,0,.15A.53.53,0,0,1,231.37,45.11Zm-1.73.14c0-.19-.07-.3-.21-.34a2.09,2.09,0,0,0-.47-.08l-.51,0a.39.39,0,0,1-.34-.26v-.18a5.24,5.24,0,0,0-.09-.89c-.07-.34-.14-.68-.24-1s-.19-.7-.29-1-.2-.64-.29-.91-.2-.56-.32-.88l-.22,0a1,1,0,0,1-.51-.12l-.49-.26A4.33,4.33,0,0,0,225,39a3.59,3.59,0,0,0-1-.12,10.85,10.85,0,0,1-1.4-.09,9.32,9.32,0,0,0-1.4-.1,3.91,3.91,0,0,0-1.82.44,5.12,5.12,0,0,0-1.49,1.16,5.45,5.45,0,0,0-1,1.62,4.92,4.92,0,0,0-.36,1.82c0,.26,0,.56,0,.9s0,.68.09,1a4.55,4.55,0,0,0,.23,1,1.37,1.37,0,0,0,.43.67v.48a.25.25,0,0,0,.18.08h.23a.64.64,0,0,1,.2,0A.2.2,0,0,1,218,48a2.37,2.37,0,0,0,.59,1,4.08,4.08,0,0,0,.78.57l.84.47a2.71,2.71,0,0,1,.76.69l.29,0h.3a7.62,7.62,0,0,1,1.08.08,7.59,7.59,0,0,0,1.07.08,1.85,1.85,0,0,0,1-.3,2.88,2.88,0,0,0,.78-.74,4.89,4.89,0,0,1,.39-.5,4.4,4.4,0,0,1,.35-.39,2.71,2.71,0,0,1,.4-.35l.51-.37.25-.18a2.45,2.45,0,0,0,.55-.49.4.4,0,0,0,.1-.25,1.06,1.06,0,0,0,0-.31,1.17,1.17,0,0,1,0-.32,1.68,1.68,0,0,1,.05-.41,2,2,0,0,1,.16-.47,1.34,1.34,0,0,1,.28-.37.58.58,0,0,1,.41-.15.92.92,0,0,1,.38.09,1.94,1.94,0,0,1,.34.21A1.16,1.16,0,0,0,229.64,45.25Z"/>
    
        <path class="cls-1" d="M254.5,52.25a.61.61,0,0,1-.12.39.81.81,0,0,1-.3.25,1.68,1.68,0,0,1-.4.11l-.41,0a4.73,4.73,0,0,1-.52,0l-.52-.07c-.23.08-.5.17-.82.25a3.15,3.15,0,0,1-.86.13.69.69,0,0,1-.2,0,.39.39,0,0,0-.18,0,1.64,1.64,0,0,0-.6.12,1.8,1.8,0,0,1-.59.11,3.44,3.44,0,0,1-1-.13,4.81,4.81,0,0,0-1-.17,1.65,1.65,0,0,1-1.25-.63,2.21,2.21,0,0,1-.48-1.34,3.52,3.52,0,0,1,1.13-.45,6.13,6.13,0,0,1,1.21-.12h.68c.23,0,.46,0,.69.06,0-.87-.11-1.74-.23-2.6a20.83,20.83,0,0,1-.17-2.62c0-.3,0-.6,0-.9a6.94,6.94,0,0,1,.12-.9,6.8,6.8,0,0,1,.22-.89,3.13,3.13,0,0,0,.14-.9,1.61,1.61,0,0,0-.09-.54,2.81,2.81,0,0,0-.22-.51,1.45,1.45,0,0,1-.16-.47c0-.17,0-.35-.08-.53a3.56,3.56,0,0,0-.16-.53,1.25,1.25,0,0,0-.34-.47,1.71,1.71,0,0,0-.65-.32,4,4,0,0,0-1.09-.13,3.51,3.51,0,0,0-.61.07c-.28,0-.55.09-.83.15a5.79,5.79,0,0,0-.8.23,1.31,1.31,0,0,0-.51.26l-.22.25-.28.32a4,4,0,0,1-.28.29.53.53,0,0,1-.25.15l-.39.09a.42.42,0,0,0-.2.1.41.41,0,0,0-.13.2l-.18.37-.13.27c-.07.13-.14.2-.21.2a.11.11,0,0,1-.12-.07.14.14,0,0,0-.13-.07l-.09,0-.1.08v.49a.41.41,0,0,1-.21.15l-.16,0a.13.13,0,0,0-.09.09,1.78,1.78,0,0,0,0,.33.67.67,0,0,1-.09.34l-.18.32-.18.32a.75.75,0,0,0-.09.37,2.18,2.18,0,0,0,.1.67,2.39,2.39,0,0,1,.09.66.86.86,0,0,1-.07.38,1.35,1.35,0,0,1-.16.29,2.79,2.79,0,0,0-.17.25.66.66,0,0,0-.07.3,1.09,1.09,0,0,0,.1.44l.2.4c.07.14.13.29.2.44a1.28,1.28,0,0,1,.09.48,2.46,2.46,0,0,1-.07.6,3.18,3.18,0,0,0-.07.62,1.08,1.08,0,0,0,.12.56.76.76,0,0,0,.29.3,1.54,1.54,0,0,0,.43.16,3.11,3.11,0,0,1,1,.41,1.63,1.63,0,0,1,.49.49l.1,0a.45.45,0,0,1,.43.24,1,1,0,0,1,.14.51.82.82,0,0,1-.1.42,1,1,0,0,0-.11.48c0,.14-.15.25-.45.34a5.52,5.52,0,0,1-1,.22c-.38,0-.75.09-1.1.11l-.7,0h-.63l-1,0-1.1-.08a9.81,9.81,0,0,1-1.05-.15A3.75,3.75,0,0,1,235,53a.77.77,0,0,1-.42-.36,3.86,3.86,0,0,1-.17-.45,1.51,1.51,0,0,1-.09-.5.85.85,0,0,1,.13-.47,2.23,2.23,0,0,1,.32-.38,1,1,0,0,1,.57-.28l.62-.06a3.81,3.81,0,0,0,.59,0,.89.89,0,0,0,.5-.27,1.57,1.57,0,0,0,.34-.71,5.4,5.4,0,0,0,.13-1.37,3.4,3.4,0,0,0,0-.45,3,3,0,0,0-.09-.45c0-.15-.06-.28-.08-.39a1.16,1.16,0,0,1,0-.26.53.53,0,0,1,.06-.23l.14-.25a2,2,0,0,0,.14-.29.93.93,0,0,0,.06-.34,1.66,1.66,0,0,0-.11-.58,1.38,1.38,0,0,1-.11-.57,1.29,1.29,0,0,1,.08-.47,1.18,1.18,0,0,0,.09-.46.72.72,0,0,0-.11-.37.8.8,0,0,1-.1-.38,1.15,1.15,0,0,1,.07-.39,1.12,1.12,0,0,0,.07-.4,5,5,0,0,0-.1-.93c-.07-.32-.14-.63-.2-.93a1.34,1.34,0,0,0-.38-.8,2,2,0,0,0-.65-.41,6.25,6.25,0,0,0-.77-.23,2.15,2.15,0,0,1-.72-.27,1.44,1.44,0,0,1-.55-.52,1.86,1.86,0,0,1-.22-1,.87.87,0,0,1,.27-.69,1.65,1.65,0,0,1,.65-.36,3,3,0,0,1,.81-.13l.73,0a3.41,3.41,0,0,1,1,.15,4.29,4.29,0,0,0,1,.18.89.89,0,0,1,.43.15,1.91,1.91,0,0,1,.38.31,1.42,1.42,0,0,1,.28.41,1.26,1.26,0,0,1,.12.45,1.56,1.56,0,0,0,.07.37c0,.18.1.36.16.55s.14.35.21.49.15.22.23.22a.55.55,0,0,0,.15-.2c0-.08.06-.15.08-.22s.09-.16.23-.28l.49-.36.52-.36a2.77,2.77,0,0,0,.35-.28,1.23,1.23,0,0,0,.17-.25,2.68,2.68,0,0,1,.12-.24.49.49,0,0,1,.16-.19.55.55,0,0,1,.3-.07H243a.53.53,0,0,0,.36-.16,4.05,4.05,0,0,1,.45-.37,2.91,2.91,0,0,1,.73-.38,3.84,3.84,0,0,1,1.19-.16l1.29,0a4.93,4.93,0,0,1,1.22.18,3.78,3.78,0,0,1,1.09.48,3,3,0,0,1,.89.92,6.57,6.57,0,0,0,.49.69A3.58,3.58,0,0,1,251,38a1.4,1.4,0,0,1,.16.5,6.2,6.2,0,0,1,.05.88,1.06,1.06,0,0,0,.08.45c.06.14.13.28.2.43a3.19,3.19,0,0,1,.2.46,1.55,1.55,0,0,1,.09.55,12.09,12.09,0,0,1-.07,1.21,9.66,9.66,0,0,0-.07,1.2,2.51,2.51,0,0,1-.16.85,2.12,2.12,0,0,0-.17.85.82.82,0,0,0,.1.4.89.89,0,0,1,.11.43,3.07,3.07,0,0,1-.07.6,2.46,2.46,0,0,0-.07.6.86.86,0,0,0,.13.48.85.85,0,0,1,.13.47.36.36,0,0,1-.06.22l-.14.18-.14.18a.41.41,0,0,0-.06.23,1.15,1.15,0,0,0,.13.53,2,2,0,0,0,.34.49,1.57,1.57,0,0,0,.47.34,1.08,1.08,0,0,0,.52.13.8.8,0,0,0,.39-.09.71.71,0,0,1,.35-.1.62.62,0,0,1,.44.2,1.91,1.91,0,0,1,.35.48,2.32,2.32,0,0,1,.22.57A1.7,1.7,0,0,1,254.5,52.25Zm-15-6.93a1.18,1.18,0,0,0,0-.3,2.3,2.3,0,0,0-.12-.34.93.93,0,0,0-.19-.27.37.37,0,0,0-.27-.12.48.48,0,0,0-.33.12.56.56,0,0,1-.35.11h-.07a1.63,1.63,0,0,0,0,.36l0,.11,0-.06a.49.49,0,0,0,.2.3,2.21,2.21,0,0,0,.34.18l.37.15a.89.89,0,0,1,.33.19A.6.6,0,0,0,239.53,45.32Zm11.23.39a.62.62,0,0,0-.11-.33.37.37,0,0,0-.31-.17.27.27,0,0,0-.26.18,1.11,1.11,0,0,0-.06.34,1,1,0,0,0,.06.36.27.27,0,0,0,.28.18.34.34,0,0,0,.27-.11.82.82,0,0,0,.13-.41Zm.29,3.33a.25.25,0,0,0-.09-.2,1.37,1.37,0,0,0-.2-.13.57.57,0,0,1-.12.21,1.84,1.84,0,0,0-.17.22l-.17.25a.46.46,0,0,0-.08.24.26.26,0,0,0,.09.21l.21.12a.43.43,0,0,1,.11-.21l.18-.22.17-.24A.43.43,0,0,0,251.05,49Z"/>
    
        <path class="cls-1" d="M273,49.07a1.9,1.9,0,0,1-.15.8,2.39,2.39,0,0,1-.38.59A4.26,4.26,0,0,1,272,51l-.62.48a2.37,2.37,0,0,1-.43.31l-.37.18-.38.14a3.79,3.79,0,0,0-.46.19,4.86,4.86,0,0,0-.58.32l-.47.27a2.82,2.82,0,0,1-.51.19,3.7,3.7,0,0,1-.69.13c-.47.06-.93.13-1.4.21a8.24,8.24,0,0,1-1.39.12.75.75,0,0,1-.29-.06l-.34-.12-.42-.12a2.37,2.37,0,0,0-.57-.06,1.39,1.39,0,0,1-.55-.1,1.6,1.6,0,0,1-.37-.25l-.34-.3a1.94,1.94,0,0,0-.45-.29,6.78,6.78,0,0,1-1.77-1.12,7,7,0,0,1-1.24-1.48,8.74,8.74,0,0,1-.87-1.76,17.67,17.67,0,0,1-.59-2,5.68,5.68,0,0,1-.19-1.46,3.61,3.61,0,0,1,.45-1.77,2.62,2.62,0,0,1-.17-.93,3.69,3.69,0,0,1,.19-1,8.71,8.71,0,0,1,.49-1.31,7.86,7.86,0,0,1,.66-1.19,1.67,1.67,0,0,1,.67-.65,2,2,0,0,0,.33-.14c.07,0,.1-.16.1-.34a.43.43,0,0,1,.16-.35,1.29,1.29,0,0,1,.4-.22l.47-.16a2.8,2.8,0,0,0,.39-.14c.43-.21.83-.38,1.22-.53s.78-.26,1.16-.36a9.25,9.25,0,0,1,1.21-.22c.41,0,.86-.07,1.33-.07a2.72,2.72,0,0,1,.75.11,4.59,4.59,0,0,1,.7.27q.33.16.66.36l.65.39h0a1.4,1.4,0,0,1,.49.15,1.69,1.69,0,0,0,.5.14,2.94,2.94,0,0,0,.63.57c.26.18.51.36.76.56a4.25,4.25,0,0,1,.64.63,1.21,1.21,0,0,1,.27.77.61.61,0,0,1,0,.14,1,1,0,0,1,0,.16l.07-.09a.92.92,0,0,1,.13.17l.11.27c0,.1.06.2.08.3s0,.17.06.23a1.09,1.09,0,0,0,.37.37,1,1,0,0,1,.37.38.61.61,0,0,0-.17.45,1.51,1.51,0,0,0,.12.58,1.47,1.47,0,0,1,.12.58c0,.23,0,.45,0,.67a4.68,4.68,0,0,0,0,.66.43.43,0,0,1-.2.4,2.52,2.52,0,0,1-.43.24l-.43.21a.34.34,0,0,0-.19.3c0,.09-.05.13-.16.13h-.27a6.59,6.59,0,0,1-1.52-.19,5.91,5.91,0,0,0-1.49-.19,10.93,10.93,0,0,0-1.62.11A12.2,12.2,0,0,1,265,45l-1.2,0c-.4,0-.8,0-1.21,0a5,5,0,0,0-.58.06c-.29,0-.6.1-.91.16s-.63.14-.91.22a2.55,2.55,0,0,0-.61.25,1.47,1.47,0,0,0,0,.25A3.48,3.48,0,0,0,260,47.5a6.22,6.22,0,0,0,1.25,1.57A7.37,7.37,0,0,0,263,50.25a4.38,4.38,0,0,0,2,.47c.38,0,.76,0,1.14,0a3.91,3.91,0,0,1,1.1.26,5.61,5.61,0,0,0,.86-.52q.39-.3.75-.63c.24-.22.48-.44.71-.67l.71-.7a.9.9,0,0,1,.34-.13l.58-.1.6-.07.39,0a2,2,0,0,1,.74.13A3,3,0,0,1,273,49.07Zm-2.6-7a1.43,1.43,0,0,0-.09-.5,4.1,4.1,0,0,1-.14-.5,5.26,5.26,0,0,1-.09-.95,3.37,3.37,0,0,0-.13-.93h0a.31.31,0,0,1-.07.2.22.22,0,0,1-.19.1.83.83,0,0,1-.4-.11.93.93,0,0,1-.33-.26c-.44-.19-.83-.38-1.19-.55s-.7-.33-1-.46a6.7,6.7,0,0,0-1.13-.31,7.15,7.15,0,0,0-1.38-.11h-.13a.15.15,0,0,0-.11.06l.09.19-.14,0c-.31.06-.57.11-.77.17a2.25,2.25,0,0,0-.55.21,3.72,3.72,0,0,0-.47.34l-.6.51a1.28,1.28,0,0,1-.38.24l-.39.13-.38.13a.65.65,0,0,0-.31.23,3.83,3.83,0,0,1-.35.84,1.67,1.67,0,0,0-.24.86.65.65,0,0,0,.22.46,1.83,1.83,0,0,0,.55.33,5.07,5.07,0,0,0,.75.25,5.76,5.76,0,0,0,.81.15c.26,0,.51.06.73.08l.53,0a7.07,7.07,0,0,0,1.3-.13,6.3,6.3,0,0,1,1.3-.13q.68,0,1.35.06t1.35.06l.52,0a4.08,4.08,0,0,0,.69-.09,2.42,2.42,0,0,0,.59-.23A.46.46,0,0,0,270.43,42Z"/>
    </g>

</svg>