<svg id="Layer_1" data-name="Layer 1" xmlns="http://www.w3.org/2000/svg" width="310" height="106" viewBox="0 0 287.5 106.87"><defs><style>.cls-1{fill:gray;}</style></defs><path class="cls-1" d="M89.27,71.3V56.16H75.4V71.3H67.79V40.09h7.58v13.8H89.24V40.1h7.64V71.3Z"/><path class="cls-1" d="M198.37,40.08c.25,0,.44,0,.64,0,4.57.06,9.16,0,13.73.21a22.6,22.6,0,0,1,8.67,2.11,13.89,13.89,0,0,1,8.29,14.35c-.56,7.29-4.6,12-12.08,13.63a46.49,46.49,0,0,1-7.89,1c-3.56.16-7.14,0-10.71,0-.19,0-.39,0-.65,0ZM206,69.48c1.74-.09,3.35-.13,5-.27,5.61-.49,9.42-3.84,10.5-9.25a21.12,21.12,0,0,0-.16-9.09,10.49,10.49,0,0,0-3.74-6.16c-3.42-2.64-7.42-2.8-11.55-2.69Z"/><path class="cls-1" d="M252.5,39.51a22.44,22.44,0,0,1,8.75,1.82,14.41,14.41,0,0,1,9.12,12.74c.45,5.63-1,10.59-5.77,14.15a18.31,18.31,0,0,1-8.15,3.28,22.79,22.79,0,0,1-12.78-1.38c-7-2.93-9.72-8.79-9.29-15.63.58-9.14,7.31-13.59,14.71-14.67C250.21,39.65,251.36,39.61,252.5,39.51Zm10.1,16.32a20.36,20.36,0,0,0-1.83-9.19,8.67,8.67,0,0,0-7.64-5.27A8.84,8.84,0,0,0,244.45,46a17.69,17.69,0,0,0-2.22,8.17,20.31,20.31,0,0,0,1.84,10.67,8.9,8.9,0,0,0,8.62,5.23,8.73,8.73,0,0,0,8.18-5.41A20.05,20.05,0,0,0,262.6,55.83Z"/><path class="cls-1" d="M76.78,34.92l-1.16,1.86A32,32,0,0,0,70.53,35c-5.18-.9-9,1.28-11.79,5.56a61.12,61.12,0,0,0-5.61,12.12A63.9,63.9,0,0,1,46.8,65.88C40.11,76,28.18,75.89,21.51,72.6a12.78,12.78,0,0,1-4.46-3.43l1.88-1.77A12.68,12.68,0,0,0,26,71.5a10,10,0,0,0,9.9-3.11A32.71,32.71,0,0,0,41.43,59c1.66-3.85,3.13-7.78,4.86-11.59a26.79,26.79,0,0,1,8.41-11c6.1-4.4,12.77-5.15,19.82-2.6A20.53,20.53,0,0,1,76.78,34.92Z"/><path class="cls-1" d="M155.67,40.09h20.1v2.07H163.33V53.91H175v2.18H163.32V69.21h13v2.1H155.67Z"/><path class="cls-1" d="M115.5,70.94l1-1.77a22.65,22.65,0,0,0,3.69,1.21,5.52,5.52,0,0,0,6-3.09,54,54,0,0,0,2.86-6.41c1.38-3.67,2.45-7.46,4-11.07a16.54,16.54,0,0,1,7.94-9,15.55,15.55,0,0,1,12.65-.47l-.76,2a28.6,28.6,0,0,0-3.13-.71,5.68,5.68,0,0,0-6.06,2.93,62.18,62.18,0,0,0-3.25,7.32c-1.44,3.72-2.62,7.53-4.12,11.21A16.45,16.45,0,0,1,132,69a13.78,13.78,0,0,1-14.34,3A17.93,17.93,0,0,1,115.5,70.94Z"/><path class="cls-1" d="M113.53,71.31H106V40.11h7.56Z"/><path class="cls-1" d="M189.3,71.31h-7.56V40.11h7.56Z"/></svg>