<svg id="Layer_1" data-name="Layer 1" xmlns="http://www.w3.org/2000/svg" width="310" height="106" viewBox="0 0 100 106"><defs><style>.cls-1{fill:gray;}.cls-2{fill:#aaa;}
</style></defs>

    <g xmlns="http://www.w3.org/2000/svg" style="transform: translate(-50%, -18%) scale(1.4);"><path class="cls-1" d="M97.34,54.66c.23-1,.62-2,.9-3a27,27,0,0,0,.83-3,3.69,3.69,0,0,0-2.89-4.41l-.59-.17a20.75,20.75,0,0,0-1.54-3.27A26,26,0,0,0,70.26,27.65a29.35,29.35,0,0,0-4,.45,25.87,25.87,0,0,0-7.57,2.76,26.64,26.64,0,0,0-6.09,4.63,24,24,0,0,0-2.34,2.79,8.7,8.7,0,0,0-1,1.54,6.27,6.27,0,0,1-1.41.27,2.93,2.93,0,0,0-2.52,2.22l-2,6.36c0,.09,0,.17-.07.28l1.91-.32a1.46,1.46,0,0,1,.51,0c-.09.57-.2,1.13-.26,1.7a28.17,28.17,0,0,0-.22,4.31,29,29,0,0,0,.58,4.73,24.17,24.17,0,0,0,2,5.78,8.84,8.84,0,0,1-.5,1.81c-.6,2-1.23,4.07-1.85,6.1a.49.49,0,0,1-.13.27,32.39,32.39,0,1,1,2.09,2.53,5.13,5.13,0,0,1,1.27-.22,7,7,0,0,0,4.4-1.9,5.1,5.1,0,0,1,.64-.67,8.5,8.5,0,0,0,1.06.93,25.51,25.51,0,0,0,4.87,3.15,26.22,26.22,0,0,0,4.28,1.68,24.48,24.48,0,0,0,5.81,1,27.08,27.08,0,0,0,4.41-.11,25.59,25.59,0,0,0,5.2-1.09A26.37,26.37,0,0,0,91.9,69.84a25.82,25.82,0,0,0,3.2-5.28,27.63,27.63,0,0,0,1.41-3.88,26.16,26.16,0,0,0,.79-4.31A4.91,4.91,0,0,0,97.34,54.66Z"/><path class="cls-1" d="M55,45.69l-3.21.53-6.34,1.05c-.16,0-.29,0-.22-.19.49-1.54,1-3.08,1.46-4.62a1.47,1.47,0,0,1,1.25-1.05l3.74-.61L59,39.6l10.8-1.76,2.85-.47c.22,0,.3,0,.22.24-.29.86-.5,1.75-.84,2.58a5.4,5.4,0,0,1-4.27,3.41c-2,.36-4,.67-6,1a.48.48,0,0,0-.43.36q-3,10-6.06,19.91c-.6,2-1.14,3.94-1.8,5.89a4.9,4.9,0,0,1-3.94,3.39c-.93.18-1.88.28-2.82.44-.29,0-.31,0-.23-.27q1.53-5,3-10,2.61-8.54,5.21-17.07c.14-.45.27-.9.41-1.35C55.14,45.75,55.17,45.64,55,45.69Z"/><path class="cls-2" d="M49.26,39.82a8.7,8.7,0,0,1,1-1.54,24,24,0,0,1,2.34-2.79,26.64,26.64,0,0,1,6.09-4.63,25.87,25.87,0,0,1,7.57-2.76,29.35,29.35,0,0,1,4-.45A26,26,0,0,1,94.05,40.88a20.75,20.75,0,0,1,1.54,3.27,19.74,19.74,0,0,0-7.52.77,5.94,5.94,0,0,0-.63-1.13A9.48,9.48,0,0,0,86.17,42l1.71-5.49c.15-.47.15-.46-.34-.38l-5.2.85a6.75,6.75,0,0,0-1.38.45,3.18,3.18,0,0,0-.84-.52A18.77,18.77,0,0,0,73,34.86a19.52,19.52,0,0,0-4.77.17A18.65,18.65,0,0,0,62.48,37a6.64,6.64,0,0,0-1.5.94l-2.82.48-7.82,1.28Z"/><path class="cls-2" d="M97.34,54.66a4.91,4.91,0,0,1,0,1.71,26.16,26.16,0,0,1-.79,4.31,27.63,27.63,0,0,1-1.41,3.88A25.91,25.91,0,0,1,86.63,74.9a26.26,26.26,0,0,1-7.27,3.7,25.59,25.59,0,0,1-5.2,1.09,27.08,27.08,0,0,1-4.41.11,24.48,24.48,0,0,1-5.81-1,26.22,26.22,0,0,1-4.28-1.68A25.51,25.51,0,0,1,54.79,74,8.5,8.5,0,0,1,53.73,73a6.87,6.87,0,0,0,1.18-2.54.44.44,0,0,1,.42-.36l5.17-.89a.82.82,0,0,0,.26.23,19,19,0,0,0,10.39,3.21,19,19,0,0,0,2.91-.2A18.34,18.34,0,0,0,79,71.07a18.9,18.9,0,0,0,6.51-4.76,3.87,3.87,0,0,0,.64-.81c.9-.13,1.82-.22,2.72-.42A12.06,12.06,0,0,0,92,64a7.87,7.87,0,0,0,3.65-4.44c.26-.68.48-1.37.7-2C96.65,56.54,97.11,55.64,97.34,54.66Z"/><path class="cls-1" d="M67.78,66.6a3.59,3.59,0,0,1-1.13-.11,2.54,2.54,0,0,1-2.06-2.58A10.6,10.6,0,0,1,65,61.17a54.69,54.69,0,0,1,2.69-8.27,7.31,7.31,0,0,1,1.37-2.41,6.52,6.52,0,0,1,3.74-1.82c1.42-.22,2.83-.46,4.25-.69a.34.34,0,0,0,.3-.28c.54-1.78,1.1-3.55,1.64-5.32a10.39,10.39,0,0,1,.83-2,4.06,4.06,0,0,1,3.07-2.08l2.86-.47c.32-.06.28.08.21.29q-1.59,5-3.17,10.08-2.43,7.7-4.84,15.4l-.42,1.34a.34.34,0,0,1-.33.28L68.4,66.59A4.26,4.26,0,0,1,67.78,66.6Zm8.08-14c-.51.07-1,.15-1.43.19A1.6,1.6,0,0,0,73,54c-.37,1.2-.77,2.39-1.16,3.59s-.75,2.32-1.12,3.47c-.18.58.1,1,.65.9a8.88,8.88,0,0,0,1.35-.24.51.51,0,0,0,.39-.38q.89-2.85,1.79-5.71Z"/><path class="cls-1" d="M95,57.2a12.35,12.35,0,0,1-1.85,4.09,5.9,5.9,0,0,1-2.65,1.9,16.13,16.13,0,0,1-7.31.93,2.72,2.72,0,0,1-2.39-1.51,3.43,3.43,0,0,1-.18-2.1,58.55,58.55,0,0,1,1.53-5.67A29.48,29.48,0,0,1,84,50.06a7.36,7.36,0,0,1,5.5-4.14,24.07,24.07,0,0,1,4.39-.55,5.93,5.93,0,0,1,2.5.41,2.16,2.16,0,0,1,1.39,2,5,5,0,0,1-.23,1.67q-.85,2.7-1.7,5.41a.47.47,0,0,1-.43.38c-2.6.4-5.2.82-7.8,1.23A.62.62,0,0,0,87,57c-.15.61-.37,1.21-.53,1.82s.09.83.65.84a3.68,3.68,0,0,0,1-.12,1.64,1.64,0,0,0,1.24-1.17.43.43,0,0,1,.4-.33l5-.81Zm-6.72-4.34,2.8-.42a.27.27,0,0,0,.24-.2c.14-.5.31-1,.44-1.49s-.1-.75-.62-.77a3,3,0,0,0-.89.08,1.73,1.73,0,0,0-1.46,1.2C88.67,51.77,88.5,52.28,88.32,52.86Z"/><path class="cls-1" d="M86.14,65.5a3.87,3.87,0,0,1-.64.81A18.9,18.9,0,0,1,79,71.07a18.34,18.34,0,0,1-4.93,1.42,19,19,0,0,1-2.91.2,19,19,0,0,1-10.39-3.21.82.82,0,0,1-.26-.23,11.47,11.47,0,0,1,1.65-.33.31.31,0,0,0,.26-.25q.48-1.53,1-3.06c0-.08,0-.22.12-.21s.09.12.12.19a3.78,3.78,0,0,0,2.91,2.21,9,9,0,0,0,3.31-.1L74,67l3.3-.55c.34,0,.68-.11,1-.14.17,0,.22-.08.27-.24.28-.94.59-1.87.88-2.8,0-.08,0-.19.14-.21s.1.08.13.14a4,4,0,0,0,3.16,2.14,10.9,10.9,0,0,0,2.91.09A.44.44,0,0,1,86.14,65.5Z"/><path class="cls-1" d="M61,37.9a6.64,6.64,0,0,1,1.5-.94A18.65,18.65,0,0,1,68.18,35,19.52,19.52,0,0,1,73,34.86a18.77,18.77,0,0,1,7.17,2.08,3.18,3.18,0,0,1,.84.52c-.37.3-.8.51-1.15.85a6.72,6.72,0,0,0-1.75,2.84c-.57,1.74-1.11,3.5-1.65,5.25-.07.26-.17.4-.46.44-1.29.2-2.58.42-3.86.65a7.63,7.63,0,0,0-3,1.28l-.26.16s0,0-.09,0a3.86,3.86,0,0,0,0-1.91,3.91,3.91,0,0,0-1-1.77c-.23-.24-.12-.28.11-.32a5.76,5.76,0,0,0,1.68-.47,6.73,6.73,0,0,0,3.87-4.25c.46-1.49.94-3,1.43-4.5l-3.53.58-4,.66c-1.37.23-2.74.47-4.12.67A15.66,15.66,0,0,1,61,37.9Z"/><path class="cls-1" d="M66.36,51.47c.18,0,0,.19,0,.29-.31,1-.61,1.94-.92,2.92q-2,6.39-4,12.78c-.05.17-.11.28-.3.31-1.79.3-3.57.61-5.36.93-.27,0-.28,0-.21-.25.91-2.87,1.82-5.75,2.72-8.62q1.11-3.51,2.21-7a.5.5,0,0,1,.44-.39l5.16-.91Z"/><path class="cls-2" d="M47.81,65.12a24.17,24.17,0,0,1-2-5.78,29,29,0,0,1-.58-4.73,28.17,28.17,0,0,1,.22-4.31c.06-.57.17-1.13.26-1.7L49.4,48l3.46-.59c.39-.06.4-.05.29.3L47.9,64.9C47.88,65,47.84,65,47.81,65.12Z"/><path class="cls-1" d="M64.56,50.81a3,3,0,0,1-2.46-1.07,2.46,2.46,0,0,1,.14-3.16,3.22,3.22,0,0,1,4.61-.18,2.4,2.4,0,0,1,.1,3.27A3.14,3.14,0,0,1,64.56,50.81Z"/><path class="cls-1" d="M86.17,42a9.48,9.48,0,0,1,1.27,1.76,5.94,5.94,0,0,1,.63,1.13l-1.1.46a8,8,0,0,0-2.29,1.52c-.09-.17,0-.3,0-.41.44-1.43.9-2.86,1.35-4.3A.26.26,0,0,1,86.17,42Z"/></g>

</svg>